  0
SECTION
  2
HEADER
  9
$ACADVER
  1
AC1014
  9
$HANDSEED
  5
FFFF
  9
$INSUNITS
 70
     1
  9
$MEASUREMENT
 70
     1
  0
ENDSEC
  0
SECTION
  2
TABLES
  0
TABLE
  2
VPORT
  5
8
330
0
100
AcDbSymbolTable
 70
     4
  0
VPORT
  5
2E
330
8
100
AcDbSymbolTableRecord
100
AcDbViewportTableRecord
  2
*ACTIVE
 70
     0
 10
0.0
 20
0.0
 11
1.0
 21
1.0
 12
210.0
 22
148.5
 13
0.0
 23
0.0
 14
10.0
 24
10.0
 15
10.0
 25
10.0
 16
0.0
 26
0.0
 36
1.0
 17
0.0
 27
0.0
 37
0.0
 40
341.0
 41
1.24
 42
50.0
 43
0.0
 44
0.0
 50
0.0
 51
0.0
 71
     0
 72
   100
 73
     1
 74
     3
 75
     0
 76
     0
 77
     0
 78
     0
  0
ENDTAB
  0
TABLE
  2
LTYPE
  5
5
330
0
100
AcDbSymbolTable
 70
     1
  0
LTYPE
  5
14
330
5
100
AcDbSymbolTableRecord
100
AcDbLinetypeTableRecord
  2
BYBLOCK
 70
     0
  3

 72
    65
 73
     0
 40
0.0
  0
LTYPE
  5
15
330
5
100
AcDbSymbolTableRecord
100
AcDbLinetypeTableRecord
  2
BYLAYER
 70
     0
  3

 72
    65
 73
     0
 40
0.0
  0
LTYPE
  5
16
330
5
100
AcDbSymbolTableRecord
100
AcDbLinetypeTableRecord
  2
CONTINUOUS
 70
     0
  3
Solid line
 72
    65
 73
     0
 40
0.0
  0
ENDTAB
  0
TABLE
  2
LAYER
  5
2
100
AcDbSymbolTable
 70
2
  0
LAYER
  5
50
100
AcDbSymbolTableRecord
100
AcDbLayerTableRecord
  2
0
 70
0
  6
CONTINUOUS
  0
LAYER
  5
51
100
AcDbSymbolTableRecord
100
AcDbLayerTableRecord
  2
Layer_1
 70
0
  6
CONTINUOUS
  0
ENDTAB
  0
TABLE
  2
STYLE
  5
3
330
0
100
AcDbSymbolTable
 70
     1
  0
STYLE
  5
11
330
3
100
AcDbSymbolTableRecord
100
AcDbTextStyleTableRecord
  2
STANDARD
 70
     0
 40
0.0
 41
1.0
 50
0.0
 71
     0
 42
2.5
  3
txt
  4

  0
ENDTAB
  0
TABLE
  2
VIEW
  5
6
330
0
100
AcDbSymbolTable
 70
     0
  0
ENDTAB
  0
TABLE
  2
UCS
  5
7
330
0
100
AcDbSymbolTable
 70
     0
  0
ENDTAB
  0
TABLE
  2
APPID
  5
9
330
0
100
AcDbSymbolTable
 70
     2
  0
APPID
  5
12
330
9
100
AcDbSymbolTableRecord
100
AcDbRegAppTableRecord
  2
ACAD
 70
     0
  0
ENDTAB
  0
TABLE
  2
DIMSTYLE
  5
A
330
0
100
AcDbSymbolTable
 70
     1
  0
DIMSTYLE
105
27
330
A
100
AcDbSymbolTableRecord
100
AcDbDimStyleTableRecord
  2
ISO-25
 70
     0
  3

  4

  5

  6

  7

 40
1.0
 41
2.5
 42
0.625
 43
3.75
 44
1.25
 45
0.0
 46
0.0
 47
0.0
 48
0.0
140
2.5
141
2.5
142
0.0
143
0.03937007874016
144
1.0
145
0.0
146
1.0
147
0.625
 71
     0
 72
     0
 73
     0
 74
     0
 75
     0
 76
     0
 77
     1
 78
     8
170
     0
171
     3
172
     1
173
     0
174
     0
175
     0
176
     0
177
     0
178
     0
270
     2
271
     2
272
     2
273
     2
274
     3
340
11
275
     0
280
     0
281
     0
282
     0
283
     0
284
     8
285
     0
286
     0
287
     3
288
     0
  0
ENDTAB
  0
TABLE
  2
BLOCK_RECORD
  5
1
330
0
100
AcDbSymbolTable
 70
     1
  0
BLOCK_RECORD
  5
1F
330
1
100
AcDbSymbolTableRecord
100
AcDbBlockTableRecord
  2
*MODEL_SPACE
  0
BLOCK_RECORD
  5
1B
330
1
100
AcDbSymbolTableRecord
100
AcDbBlockTableRecord
  2
*PAPER_SPACE
  0
ENDTAB
  0
ENDSEC
  0
SECTION
  2
BLOCKS
  0
BLOCK
  5
20
330
1F
100
AcDbEntity
  8
0
100
AcDbBlockBegin
  2
*MODEL_SPACE
 70
     0
 10
0.0
 20
0.0
 30
0.0
  3
*MODEL_SPACE
  1

  0
ENDBLK
  5
21
330
1F
100
AcDbEntity
  8
0
100
AcDbBlockEnd
  0
BLOCK
  5
1C
330
1B
100
AcDbEntity
 67
     1
  8
0
100
AcDbBlockBegin
  2
*PAPER_SPACE
  1

  0
ENDBLK
  5
1D
330
1B
100
AcDbEntity
 67
     1
  8
0
100
AcDbBlockEnd
  0
ENDSEC
  0
SECTION
  2
ENTITIES
  0
LWPOLYLINE
  5
100
100
AcDbEntity
  8
Layer_1
 62
7
100
AcDbPolyline
 90
22
 70
1
 10
5.999985
 20
7.124991
 30
0.0
 10
5.999985
 20
7.374991
 30
0.0
 10
6.249985
 20
7.374991
 30
0.0
 10
6.249985
 20
7.624991
 30
0.0
 10
5.999985
 20
7.624991
 30
0.0
 10
5.999985
 20
7.874991
 30
0.0
 10
0.249985
 20
7.874991
 30
0.0
 10
0.249985
 20
7.624991
 30
0.0
 10
0.499985
 20
7.624991
 30
0.0
 10
0.499985
 20
7.374991
 30
0.0
 10
0.249985
 20
7.374991
 30
0.0
 10
0.249985
 20
7.124991
 30
0.0
 10
1.499985
 20
7.124991
 30
0.0
 10
1.499985
 20
7.374991
 30
0.0
 10
2.499985
 20
7.374991
 30
0.0
 10
2.499985
 20
7.124991
 30
0.0
 10
2.999985
 20
7.124991
 30
0.0
 10
3.499985
 20
7.124991
 30
0.0
 10
3.999985
 20
7.124991
 30
0.0
 10
3.999985
 20
7.374991
 30
0.0
 10
4.999985
 20
7.374991
 30
0.0
 10
4.999985
 20
7.124991
 30
0.0
  0
LWPOLYLINE
  5
101
100
AcDbEntity
  8
Layer_1
 62
7
100
AcDbPolyline
 90
12
 70
1
 10
0.250000
 20
10.750000
 30
0.0
 10
0.250000
 20
10.500000
 30
0.0
 10
0.500000
 20
10.500000
 30
0.0
 10
0.500000
 20
10.250000
 30
0.0
 10
0.250000
 20
10.250000
 30
0.0
 10
0.250000
 20
8.000000
 30
0.0
 10
6.250000
 20
8.000000
 30
0.0
 10
6.250000
 20
10.250000
 30
0.0
 10
6.000000
 20
10.250000
 30
0.0
 10
6.000000
 20
10.500000
 30
0.0
 10
6.250000
 20
10.500000
 30
0.0
 10
6.250000
 20
10.750000
 30
0.0
  0
LWPOLYLINE
  5
102
100
AcDbEntity
  8
Layer_1
 62
7
100
AcDbPolyline
 90
4
 70
1
 10
5.500000
 20
10.250000
 30
0.0
 10
4.750000
 20
10.250000
 30
0.0
 10
4.750000
 20
10.000000
 30
0.0
 10
5.500000
 20
10.000000
 30
0.0
  0
LWPOLYLINE
  5
103
100
AcDbEntity
  8
Layer_1
 62
7
100
AcDbPolyline
 90
4
 70
1
 10
1.000000
 20
10.250000
 30
0.0
 10
1.750000
 20
10.250000
 30
0.0
 10
1.750000
 20
10.000000
 30
0.0
 10
1.000000
 20
10.000000
 30
0.0
  0
SPLINE
  5
104
100
AcDbEntity
  8
Layer_1
 62
7
100
AcDbSpline
 70
8
 71
3
 72
8
 73
4
 74
0
 40
0
 40
0
 40
0
 40
0
 40
1
 40
1
 40
1
 40
1
 10
2.506510
 20
9.993490
 30
0.0
 10
2.368010
 20
9.993490
 30
0.0
 10
2.256510
 20
10.104990
 30
0.0
 10
2.256510
 20
10.243490
 30
0.0
  0
SPLINE
  5
105
100
AcDbEntity
  8
Layer_1
 62
7
100
AcDbSpline
 70
8
 71
3
 72
8
 73
4
 74
0
 40
0
 40
0
 40
0
 40
0
 40
1
 40
1
 40
1
 40
1
 10
2.256510
 20
10.243490
 30
0.0
 10
2.256510
 20
10.381989
 30
0.0
 10
2.368010
 20
10.493490
 30
0.0
 10
2.506510
 20
10.493490
 30
0.0
  0
LWPOLYLINE
  5
106
100
AcDbEntity
  8
Layer_1
 62
7
100
AcDbPolyline
 90
2
 70
0
 10
4.006510
 20
9.993490
 30
0.0
 10
2.506510
 20
9.993490
 30
0.0
  0
SPLINE
  5
107
100
AcDbEntity
  8
Layer_1
 62
7
100
AcDbSpline
 70
8
 71
3
 72
8
 73
4
 74
0
 40
0
 40
0
 40
0
 40
0
 40
1
 40
1
 40
1
 40
1
 10
4.006510
 20
10.493490
 30
0.0
 10
4.145010
 20
10.493490
 30
0.0
 10
4.256510
 20
10.381989
 30
0.0
 10
4.256510
 20
10.243490
 30
0.0
  0
SPLINE
  5
108
100
AcDbEntity
  8
Layer_1
 62
7
100
AcDbSpline
 70
8
 71
3
 72
8
 73
4
 74
0
 40
0
 40
0
 40
0
 40
0
 40
1
 40
1
 40
1
 40
1
 10
4.256510
 20
10.243490
 30
0.0
 10
4.256510
 20
10.104990
 30
0.0
 10
4.145010
 20
9.993490
 30
0.0
 10
4.006510
 20
9.993490
 30
0.0
  0
LWPOLYLINE
  5
109
100
AcDbEntity
  8
Layer_1
 62
7
100
AcDbPolyline
 90
2
 70
0
 10
2.506510
 20
10.493490
 30
0.0
 10
4.006510
 20
10.493490
 30
0.0
  0
LWPOLYLINE
  5
10a
100
AcDbEntity
  8
Layer_1
 62
7
100
AcDbPolyline
 90
1
 70
1
 10
4.006510
 20
9.993490
 30
0.0
  0
SPLINE
  5
10b
100
AcDbEntity
  8
Layer_1
 62
7
100
AcDbSpline
 70
8
 71
3
 72
8
 73
4
 74
0
 40
0
 40
0
 40
0
 40
0
 40
1
 40
1
 40
1
 40
1
 10
1.680000
 20
2.312480
 30
0.0
 10
1.632261
 20
2.312480
 30
0.0
 10
1.586477
 20
2.331445
 30
0.0
 10
1.552721
 20
2.365201
 30
0.0
  0
SPLINE
  5
10c
100
AcDbEntity
  8
Layer_1
 62
7
100
AcDbSpline
 70
8
 71
3
 72
8
 73
4
 74
0
 40
0
 40
0
 40
0
 40
0
 40
1
 40
1
 40
1
 40
1
 10
1.552721
 20
2.365201
 30
0.0
 10
1.518964
 20
2.398958
 30
0.0
 10
1.500000
 20
2.444741
 30
0.0
 10
1.500000
 20
2.492480
 30
0.0
  0
SPLINE
  5
10d
100
AcDbEntity
  8
Layer_1
 62
7
100
AcDbSpline
 70
8
 71
3
 72
8
 73
4
 74
0
 40
0
 40
0
 40
0
 40
0
 40
1
 40
1
 40
1
 40
1
 10
1.500000
 20
2.492480
 30
0.0
 10
1.500000
 20
2.540219
 30
0.0
 10
1.518964
 20
2.586003
 30
0.0
 10
1.552721
 20
2.619760
 30
0.0
  0
SPLINE
  5
10e
100
AcDbEntity
  8
Layer_1
 62
7
100
AcDbSpline
 70
8
 71
3
 72
8
 73
4
 74
0
 40
0
 40
0
 40
0
 40
0
 40
1
 40
1
 40
1
 40
1
 10
1.552721
 20
2.619760
 30
0.0
 10
1.586477
 20
2.653516
 30
0.0
 10
1.632261
 20
2.672480
 30
0.0
 10
1.680000
 20
2.672480
 30
0.0
  0
SPLINE
  5
10f
100
AcDbEntity
  8
Layer_1
 62
7
100
AcDbSpline
 70
8
 71
3
 72
8
 73
4
 74
0
 40
0
 40
0
 40
0
 40
0
 40
1
 40
1
 40
1
 40
1
 10
1.680000
 20
2.672480
 30
0.0
 10
1.727739
 20
2.672480
 30
0.0
 10
1.773523
 20
2.653516
 30
0.0
 10
1.807279
 20
2.619760
 30
0.0
  0
SPLINE
  5
110
100
AcDbEntity
  8
Layer_1
 62
7
100
AcDbSpline
 70
8
 71
3
 72
8
 73
4
 74
0
 40
0
 40
0
 40
0
 40
0
 40
1
 40
1
 40
1
 40
1
 10
1.807279
 20
2.619760
 30
0.0
 10
1.841036
 20
2.586003
 30
0.0
 10
1.860000
 20
2.540219
 30
0.0
 10
1.860000
 20
2.492480
 30
0.0
  0
SPLINE
  5
111
100
AcDbEntity
  8
Layer_1
 62
7
100
AcDbSpline
 70
8
 71
3
 72
8
 73
4
 74
0
 40
0
 40
0
 40
0
 40
0
 40
1
 40
1
 40
1
 40
1
 10
1.860000
 20
2.492480
 30
0.0
 10
1.860000
 20
2.444741
 30
0.0
 10
1.841036
 20
2.398958
 30
0.0
 10
1.807279
 20
2.365201
 30
0.0
  0
SPLINE
  5
112
100
AcDbEntity
  8
Layer_1
 62
7
100
AcDbSpline
 70
8
 71
3
 72
8
 73
4
 74
0
 40
0
 40
0
 40
0
 40
0
 40
1
 40
1
 40
1
 40
1
 10
1.807279
 20
2.365201
 30
0.0
 10
1.773523
 20
2.331445
 30
0.0
 10
1.727739
 20
2.312480
 30
0.0
 10
1.680000
 20
2.312480
 30
0.0
  0
LWPOLYLINE
  5
113
100
AcDbEntity
  8
Layer_1
 62
7
100
AcDbPolyline
 90
22
 70
1
 10
0.500000
 20
1.000001
 30
0.0
 10
0.500000
 20
0.750001
 30
0.0
 10
0.250000
 20
0.750001
 30
0.0
 10
0.250000
 20
0.500001
 30
0.0
 10
0.500000
 20
0.500001
 30
0.0
 10
0.500000
 20
0.250001
 30
0.0
 10
6.250000
 20
0.250001
 30
0.0
 10
6.250000
 20
0.500001
 30
0.0
 10
6.000000
 20
0.500001
 30
0.0
 10
6.000000
 20
0.750001
 30
0.0
 10
6.250000
 20
0.750001
 30
0.0
 10
6.250000
 20
1.000001
 30
0.0
 10
5.000000
 20
1.000001
 30
0.0
 10
5.000000
 20
0.750001
 30
0.0
 10
4.000000
 20
0.750001
 30
0.0
 10
4.000000
 20
1.000001
 30
0.0
 10
3.500000
 20
1.000001
 30
0.0
 10
3.000000
 20
1.000001
 30
0.0
 10
2.500000
 20
1.000001
 30
0.0
 10
2.500000
 20
0.750001
 30
0.0
 10
1.500000
 20
0.750001
 30
0.0
 10
1.500000
 20
1.000001
 30
0.0
  0
SPLINE
  5
114
100
AcDbEntity
  8
Layer_1
 62
7
100
AcDbSpline
 70
8
 71
3
 72
8
 73
4
 74
0
 40
0
 40
0
 40
0
 40
0
 40
1
 40
1
 40
1
 40
1
 10
1.680000
 20
5.452480
 30
0.0
 10
1.632261
 20
5.452480
 30
0.0
 10
1.586477
 20
5.471445
 30
0.0
 10
1.552721
 20
5.505201
 30
0.0
  0
SPLINE
  5
115
100
AcDbEntity
  8
Layer_1
 62
7
100
AcDbSpline
 70
8
 71
3
 72
8
 73
4
 74
0
 40
0
 40
0
 40
0
 40
0
 40
1
 40
1
 40
1
 40
1
 10
1.552721
 20
5.505201
 30
0.0
 10
1.518964
 20
5.538958
 30
0.0
 10
1.500000
 20
5.584741
 30
0.0
 10
1.500000
 20
5.632480
 30
0.0
  0
SPLINE
  5
116
100
AcDbEntity
  8
Layer_1
 62
7
100
AcDbSpline
 70
8
 71
3
 72
8
 73
4
 74
0
 40
0
 40
0
 40
0
 40
0
 40
1
 40
1
 40
1
 40
1
 10
1.500000
 20
5.632480
 30
0.0
 10
1.500000
 20
5.680219
 30
0.0
 10
1.518964
 20
5.726003
 30
0.0
 10
1.552721
 20
5.759760
 30
0.0
  0
SPLINE
  5
117
100
AcDbEntity
  8
Layer_1
 62
7
100
AcDbSpline
 70
8
 71
3
 72
8
 73
4
 74
0
 40
0
 40
0
 40
0
 40
0
 40
1
 40
1
 40
1
 40
1
 10
1.552721
 20
5.759760
 30
0.0
 10
1.586477
 20
5.793516
 30
0.0
 10
1.632261
 20
5.812480
 30
0.0
 10
1.680000
 20
5.812480
 30
0.0
  0
SPLINE
  5
118
100
AcDbEntity
  8
Layer_1
 62
7
100
AcDbSpline
 70
8
 71
3
 72
8
 73
4
 74
0
 40
0
 40
0
 40
0
 40
0
 40
1
 40
1
 40
1
 40
1
 10
1.680000
 20
5.812480
 30
0.0
 10
1.727739
 20
5.812480
 30
0.0
 10
1.773523
 20
5.793516
 30
0.0
 10
1.807279
 20
5.759760
 30
0.0
  0
SPLINE
  5
119
100
AcDbEntity
  8
Layer_1
 62
7
100
AcDbSpline
 70
8
 71
3
 72
8
 73
4
 74
0
 40
0
 40
0
 40
0
 40
0
 40
1
 40
1
 40
1
 40
1
 10
1.807279
 20
5.759760
 30
0.0
 10
1.841036
 20
5.726003
 30
0.0
 10
1.860000
 20
5.680219
 30
0.0
 10
1.860000
 20
5.632480
 30
0.0
  0
SPLINE
  5
11a
100
AcDbEntity
  8
Layer_1
 62
7
100
AcDbSpline
 70
8
 71
3
 72
8
 73
4
 74
0
 40
0
 40
0
 40
0
 40
0
 40
1
 40
1
 40
1
 40
1
 10
1.860000
 20
5.632480
 30
0.0
 10
1.860000
 20
5.584741
 30
0.0
 10
1.841036
 20
5.538958
 30
0.0
 10
1.807279
 20
5.505201
 30
0.0
  0
SPLINE
  5
11b
100
AcDbEntity
  8
Layer_1
 62
7
100
AcDbSpline
 70
8
 71
3
 72
8
 73
4
 74
0
 40
0
 40
0
 40
0
 40
0
 40
1
 40
1
 40
1
 40
1
 10
1.807279
 20
5.505201
 30
0.0
 10
1.773523
 20
5.471445
 30
0.0
 10
1.727739
 20
5.452480
 30
0.0
 10
1.680000
 20
5.452480
 30
0.0
  0
LWPOLYLINE
  5
11c
100
AcDbEntity
  8
Layer_1
 62
7
100
AcDbPolyline
 90
1
 70
1
 10
1.680000
 20
2.312480
 30
0.0
  0
SPLINE
  5
11d
100
AcDbEntity
  8
Layer_1
 62
7
100
AcDbSpline
 70
8
 71
3
 72
8
 73
4
 74
0
 40
0
 40
0
 40
0
 40
0
 40
1
 40
1
 40
1
 40
1
 10
4.820000
 20
2.312480
 30
0.0
 10
4.867739
 20
2.312480
 30
0.0
 10
4.913523
 20
2.331445
 30
0.0
 10
4.947279
 20
2.365201
 30
0.0
  0
SPLINE
  5
11e
100
AcDbEntity
  8
Layer_1
 62
7
100
AcDbSpline
 70
8
 71
3
 72
8
 73
4
 74
0
 40
0
 40
0
 40
0
 40
0
 40
1
 40
1
 40
1
 40
1
 10
4.947279
 20
2.365201
 30
0.0
 10
4.981036
 20
2.398958
 30
0.0
 10
5.000000
 20
2.444741
 30
0.0
 10
5.000000
 20
2.492480
 30
0.0
  0
SPLINE
  5
11f
100
AcDbEntity
  8
Layer_1
 62
7
100
AcDbSpline
 70
8
 71
3
 72
8
 73
4
 74
0
 40
0
 40
0
 40
0
 40
0
 40
1
 40
1
 40
1
 40
1
 10
5.000000
 20
2.492480
 30
0.0
 10
5.000000
 20
2.540219
 30
0.0
 10
4.981036
 20
2.586003
 30
0.0
 10
4.947279
 20
2.619760
 30
0.0
  0
SPLINE
  5
120
100
AcDbEntity
  8
Layer_1
 62
7
100
AcDbSpline
 70
8
 71
3
 72
8
 73
4
 74
0
 40
0
 40
0
 40
0
 40
0
 40
1
 40
1
 40
1
 40
1
 10
4.947279
 20
2.619760
 30
0.0
 10
4.913523
 20
2.653516
 30
0.0
 10
4.867739
 20
2.672480
 30
0.0
 10
4.820000
 20
2.672480
 30
0.0
  0
SPLINE
  5
121
100
AcDbEntity
  8
Layer_1
 62
7
100
AcDbSpline
 70
8
 71
3
 72
8
 73
4
 74
0
 40
0
 40
0
 40
0
 40
0
 40
1
 40
1
 40
1
 40
1
 10
4.820000
 20
2.672480
 30
0.0
 10
4.772261
 20
2.672480
 30
0.0
 10
4.726477
 20
2.653516
 30
0.0
 10
4.692721
 20
2.619760
 30
0.0
  0
SPLINE
  5
122
100
AcDbEntity
  8
Layer_1
 62
7
100
AcDbSpline
 70
8
 71
3
 72
8
 73
4
 74
0
 40
0
 40
0
 40
0
 40
0
 40
1
 40
1
 40
1
 40
1
 10
4.692721
 20
2.619760
 30
0.0
 10
4.658964
 20
2.586003
 30
0.0
 10
4.640000
 20
2.540219
 30
0.0
 10
4.640000
 20
2.492480
 30
0.0
  0
SPLINE
  5
123
100
AcDbEntity
  8
Layer_1
 62
7
100
AcDbSpline
 70
8
 71
3
 72
8
 73
4
 74
0
 40
0
 40
0
 40
0
 40
0
 40
1
 40
1
 40
1
 40
1
 10
4.640000
 20
2.492480
 30
0.0
 10
4.640000
 20
2.444741
 30
0.0
 10
4.658964
 20
2.398958
 30
0.0
 10
4.692721
 20
2.365201
 30
0.0
  0
SPLINE
  5
124
100
AcDbEntity
  8
Layer_1
 62
7
100
AcDbSpline
 70
8
 71
3
 72
8
 73
4
 74
0
 40
0
 40
0
 40
0
 40
0
 40
1
 40
1
 40
1
 40
1
 10
4.692721
 20
2.365201
 30
0.0
 10
4.726477
 20
2.331445
 30
0.0
 10
4.772261
 20
2.312480
 30
0.0
 10
4.820000
 20
2.312480
 30
0.0
  0
LWPOLYLINE
  5
125
100
AcDbEntity
  8
Layer_1
 62
7
100
AcDbPolyline
 90
1
 70
1
 10
1.680000
 20
5.452480
 30
0.0
  0
SPLINE
  5
126
100
AcDbEntity
  8
Layer_1
 62
7
100
AcDbSpline
 70
8
 71
3
 72
8
 73
4
 74
0
 40
0
 40
0
 40
0
 40
0
 40
1
 40
1
 40
1
 40
1
 10
4.820000
 20
5.452480
 30
0.0
 10
4.867739
 20
5.452480
 30
0.0
 10
4.913523
 20
5.471445
 30
0.0
 10
4.947279
 20
5.505201
 30
0.0
  0
SPLINE
  5
127
100
AcDbEntity
  8
Layer_1
 62
7
100
AcDbSpline
 70
8
 71
3
 72
8
 73
4
 74
0
 40
0
 40
0
 40
0
 40
0
 40
1
 40
1
 40
1
 40
1
 10
4.947279
 20
5.505201
 30
0.0
 10
4.981036
 20
5.538958
 30
0.0
 10
5.000000
 20
5.584741
 30
0.0
 10
5.000000
 20
5.632480
 30
0.0
  0
SPLINE
  5
128
100
AcDbEntity
  8
Layer_1
 62
7
100
AcDbSpline
 70
8
 71
3
 72
8
 73
4
 74
0
 40
0
 40
0
 40
0
 40
0
 40
1
 40
1
 40
1
 40
1
 10
5.000000
 20
5.632480
 30
0.0
 10
5.000000
 20
5.680219
 30
0.0
 10
4.981036
 20
5.726003
 30
0.0
 10
4.947279
 20
5.759760
 30
0.0
  0
SPLINE
  5
129
100
AcDbEntity
  8
Layer_1
 62
7
100
AcDbSpline
 70
8
 71
3
 72
8
 73
4
 74
0
 40
0
 40
0
 40
0
 40
0
 40
1
 40
1
 40
1
 40
1
 10
4.947279
 20
5.759760
 30
0.0
 10
4.913523
 20
5.793516
 30
0.0
 10
4.867739
 20
5.812480
 30
0.0
 10
4.820000
 20
5.812480
 30
0.0
  0
SPLINE
  5
12a
100
AcDbEntity
  8
Layer_1
 62
7
100
AcDbSpline
 70
8
 71
3
 72
8
 73
4
 74
0
 40
0
 40
0
 40
0
 40
0
 40
1
 40
1
 40
1
 40
1
 10
4.820000
 20
5.812480
 30
0.0
 10
4.772261
 20
5.812480
 30
0.0
 10
4.726477
 20
5.793516
 30
0.0
 10
4.692721
 20
5.759760
 30
0.0
  0
SPLINE
  5
12b
100
AcDbEntity
  8
Layer_1
 62
7
100
AcDbSpline
 70
8
 71
3
 72
8
 73
4
 74
0
 40
0
 40
0
 40
0
 40
0
 40
1
 40
1
 40
1
 40
1
 10
4.692721
 20
5.759760
 30
0.0
 10
4.658964
 20
5.726003
 30
0.0
 10
4.640000
 20
5.680219
 30
0.0
 10
4.640000
 20
5.632480
 30
0.0
  0
SPLINE
  5
12c
100
AcDbEntity
  8
Layer_1
 62
7
100
AcDbSpline
 70
8
 71
3
 72
8
 73
4
 74
0
 40
0
 40
0
 40
0
 40
0
 40
1
 40
1
 40
1
 40
1
 10
4.640000
 20
5.632480
 30
0.0
 10
4.640000
 20
5.584741
 30
0.0
 10
4.658964
 20
5.538958
 30
0.0
 10
4.692721
 20
5.505201
 30
0.0
  0
SPLINE
  5
12d
100
AcDbEntity
  8
Layer_1
 62
7
100
AcDbSpline
 70
8
 71
3
 72
8
 73
4
 74
0
 40
0
 40
0
 40
0
 40
0
 40
1
 40
1
 40
1
 40
1
 10
4.692721
 20
5.505201
 30
0.0
 10
4.726477
 20
5.471445
 30
0.0
 10
4.772261
 20
5.452480
 30
0.0
 10
4.820000
 20
5.452480
 30
0.0
  0
LWPOLYLINE
  5
12e
100
AcDbEntity
  8
Layer_1
 62
7
100
AcDbPolyline
 90
1
 70
1
 10
4.820000
 20
2.312480
 30
0.0
  0
LWPOLYLINE
  5
12f
100
AcDbEntity
  8
Layer_1
 62
7
100
AcDbPolyline
 90
1
 70
1
 10
4.820000
 20
5.452480
 30
0.0
  0
SPLINE
  5
130
100
AcDbEntity
  8
Layer_1
 62
7
100
AcDbSpline
 70
8
 71
3
 72
8
 73
4
 74
0
 40
0
 40
0
 40
0
 40
0
 40
1
 40
1
 40
1
 40
1
 10
5.749999
 20
3.062480
 30
0.0
 10
5.611499
 20
3.062480
 30
0.0
 10
5.499999
 20
3.173980
 30
0.0
 10
5.499999
 20
3.312480
 30
0.0
  0
LWPOLYLINE
  5
131
100
AcDbEntity
  8
Layer_1
 62
7
100
AcDbPolyline
 90
18
 70
0
 10
0.249999
 20
1.812480
 30
0.0
 10
0.499999
 20
1.812480
 30
0.0
 10
0.499999
 20
1.312480
 30
0.0
 10
1.499999
 20
1.312480
 30
0.0
 10
1.499999
 20
1.062480
 30
0.0
 10
2.499999
 20
1.062480
 30
0.0
 10
2.499999
 20
1.312480
 30
0.0
 10
3.999999
 20
1.312480
 30
0.0
 10
3.999999
 20
1.062480
 30
0.0
 10
4.999999
 20
1.062480
 30
0.0
 10
4.999999
 20
1.312480
 30
0.0
 10
5.999999
 20
1.312480
 30
0.0
 10
5.999999
 20
1.812480
 30
0.0
 10
6.249999
 20
1.812480
 30
0.0
 10
6.249999
 20
2.562480
 30
0.0
 10
5.999999
 20
2.562480
 30
0.0
 10
5.999999
 20
3.062480
 30
0.0
 10
5.749999
 20
3.062480
 30
0.0
  0
SPLINE
  5
132
100
AcDbEntity
  8
Layer_1
 62
7
100
AcDbSpline
 70
8
 71
3
 72
8
 73
4
 74
0
 40
0
 40
0
 40
0
 40
0
 40
1
 40
1
 40
1
 40
1
 10
5.499999
 20
4.812480
 30
0.0
 10
5.499999
 20
4.950980
 30
0.0
 10
5.611499
 20
5.062480
 30
0.0
 10
5.749999
 20
5.062480
 30
0.0
  0
LWPOLYLINE
  5
133
100
AcDbEntity
  8
Layer_1
 62
7
100
AcDbPolyline
 90
2
 70
0
 10
5.499999
 20
3.312480
 30
0.0
 10
5.499999
 20
4.812480
 30
0.0
  0
SPLINE
  5
134
100
AcDbEntity
  8
Layer_1
 62
7
100
AcDbSpline
 70
8
 71
3
 72
8
 73
4
 74
0
 40
0
 40
0
 40
0
 40
0
 40
1
 40
1
 40
1
 40
1
 10
0.749999
 20
5.062480
 30
0.0
 10
0.888499
 20
5.062480
 30
0.0
 10
0.999999
 20
4.950980
 30
0.0
 10
0.999999
 20
4.812480
 30
0.0
  0
LWPOLYLINE
  5
135
100
AcDbEntity
  8
Layer_1
 62
7
100
AcDbPolyline
 90
22
 70
0
 10
5.749999
 20
5.062480
 30
0.0
 10
5.999999
 20
5.062480
 30
0.0
 10
5.999999
 20
5.562480
 30
0.0
 10
6.249999
 20
5.562480
 30
0.0
 10
6.249999
 20
6.312480
 30
0.0
 10
5.999999
 20
6.312480
 30
0.0
 10
5.999999
 20
6.812480
 30
0.0
 10
4.999999
 20
6.812480
 30
0.0
 10
4.999999
 20
7.062480
 30
0.0
 10
3.999999
 20
7.062480
 30
0.0
 10
3.999999
 20
6.812480
 30
0.0
 10
2.499999
 20
6.812480
 30
0.0
 10
2.499999
 20
7.062480
 30
0.0
 10
1.499999
 20
7.062480
 30
0.0
 10
1.499999
 20
6.812480
 30
0.0
 10
0.499999
 20
6.812480
 30
0.0
 10
0.499999
 20
6.312480
 30
0.0
 10
0.249999
 20
6.312480
 30
0.0
 10
0.249999
 20
5.562480
 30
0.0
 10
0.499999
 20
5.562480
 30
0.0
 10
0.499999
 20
5.062480
 30
0.0
 10
0.749999
 20
5.062480
 30
0.0
  0
SPLINE
  5
136
100
AcDbEntity
  8
Layer_1
 62
7
100
AcDbSpline
 70
8
 71
3
 72
8
 73
4
 74
0
 40
0
 40
0
 40
0
 40
0
 40
1
 40
1
 40
1
 40
1
 10
0.999999
 20
3.312480
 30
0.0
 10
0.999999
 20
3.173980
 30
0.0
 10
0.888499
 20
3.062480
 30
0.0
 10
0.749999
 20
3.062480
 30
0.0
  0
LWPOLYLINE
  5
137
100
AcDbEntity
  8
Layer_1
 62
7
100
AcDbPolyline
 90
2
 70
0
 10
0.999999
 20
4.812480
 30
0.0
 10
0.999999
 20
3.312480
 30
0.0
  0
LWPOLYLINE
  5
138
100
AcDbEntity
  8
Layer_1
 62
7
100
AcDbPolyline
 90
5
 70
0
 10
0.749999
 20
3.062480
 30
0.0
 10
0.499999
 20
3.062480
 30
0.0
 10
0.499999
 20
2.562480
 30
0.0
 10
0.249999
 20
2.562480
 30
0.0
 10
0.249999
 20
1.812480
 30
0.0
  0
SPLINE
  5
139
100
AcDbEntity
  8
Layer_1
 62
7
100
AcDbSpline
 70
8
 71
3
 72
8
 73
4
 74
0
 40
0
 40
0
 40
0
 40
0
 40
1
 40
1
 40
1
 40
1
 10
13.000000
 20
5.625000
 30
0.0
 10
13.138500
 20
5.625000
 30
0.0
 10
13.250000
 20
5.513500
 30
0.0
 10
13.250000
 20
5.375000
 30
0.0
  0
LWPOLYLINE
  5
13a
100
AcDbEntity
  8
Layer_1
 62
7
100
AcDbPolyline
 90
17
 70
0
 10
13.000000
 20
1.875000
 30
0.0
 10
13.250000
 20
1.875000
 30
0.0
 10
13.250000
 20
1.625000
 30
0.0
 10
13.500000
 20
1.625000
 30
0.0
 10
13.500000
 20
1.875000
 30
0.0
 10
13.750000
 20
1.875000
 30
0.0
 10
13.750000
 20
7.375000
 30
0.0
 10
13.500000
 20
7.375000
 30
0.0
 10
13.500000
 20
7.625000
 30
0.0
 10
13.250000
 20
7.625000
 30
0.0
 10
13.250000
 20
7.375000
 30
0.0
 10
13.000000
 20
7.375000
 30
0.0
 10
13.000000
 20
6.875000
 30
0.0
 10
13.250000
 20
6.875000
 30
0.0
 10
13.250000
 20
6.125000
 30
0.0
 10
13.000000
 20
6.125000
 30
0.0
 10
13.000000
 20
5.625000
 30
0.0
  0
SPLINE
  5
13b
100
AcDbEntity
  8
Layer_1
 62
7
100
AcDbSpline
 70
8
 71
3
 72
8
 73
4
 74
0
 40
0
 40
0
 40
0
 40
0
 40
1
 40
1
 40
1
 40
1
 10
13.250000
 20
3.875000
 30
0.0
 10
13.250000
 20
3.736500
 30
0.0
 10
13.138500
 20
3.625000
 30
0.0
 10
13.000000
 20
3.625000
 30
0.0
  0
LWPOLYLINE
  5
13c
100
AcDbEntity
  8
Layer_1
 62
7
100
AcDbPolyline
 90
2
 70
0
 10
13.250000
 20
5.375000
 30
0.0
 10
13.250000
 20
3.875000
 30
0.0
  0
LWPOLYLINE
  5
13d
100
AcDbEntity
  8
Layer_1
 62
7
100
AcDbPolyline
 90
6
 70
0
 10
13.000000
 20
3.625000
 30
0.0
 10
13.000000
 20
3.125000
 30
0.0
 10
13.250000
 20
3.125000
 30
0.0
 10
13.250000
 20
2.375000
 30
0.0
 10
13.000000
 20
2.375000
 30
0.0
 10
13.000000
 20
1.875000
 30
0.0
  0
LWPOLYLINE
  5
13e
100
AcDbEntity
  8
Layer_1
 62
7
100
AcDbPolyline
 90
22
 70
1
 10
12.061993
 20
7.124991
 30
0.0
 10
12.061993
 20
7.374991
 30
0.0
 10
12.311993
 20
7.374991
 30
0.0
 10
12.311993
 20
7.624991
 30
0.0
 10
12.061993
 20
7.624991
 30
0.0
 10
12.061993
 20
7.874991
 30
0.0
 10
6.311993
 20
7.874991
 30
0.0
 10
6.311993
 20
7.624991
 30
0.0
 10
6.561993
 20
7.624991
 30
0.0
 10
6.561993
 20
7.374991
 30
0.0
 10
6.311993
 20
7.374991
 30
0.0
 10
6.311993
 20
7.124991
 30
0.0
 10
7.561993
 20
7.124991
 30
0.0
 10
7.561993
 20
7.374991
 30
0.0
 10
8.561993
 20
7.374991
 30
0.0
 10
8.561993
 20
7.124991
 30
0.0
 10
9.061993
 20
7.124991
 30
0.0
 10
9.561993
 20
7.124991
 30
0.0
 10
10.061993
 20
7.124991
 30
0.0
 10
10.061993
 20
7.374991
 30
0.0
 10
11.061993
 20
7.374991
 30
0.0
 10
11.061993
 20
7.124991
 30
0.0
  0
LWPOLYLINE
  5
13f
100
AcDbEntity
  8
Layer_1
 62
7
100
AcDbPolyline
 90
12
 70
1
 10
6.312000
 20
10.750000
 30
0.0
 10
6.312000
 20
10.500000
 30
0.0
 10
6.562000
 20
10.500000
 30
0.0
 10
6.562000
 20
10.250000
 30
0.0
 10
6.312000
 20
10.250000
 30
0.0
 10
6.312000
 20
8.000000
 30
0.0
 10
12.312000
 20
8.000000
 30
0.0
 10
12.312000
 20
10.250000
 30
0.0
 10
12.062000
 20
10.250000
 30
0.0
 10
12.062000
 20
10.500000
 30
0.0
 10
12.312000
 20
10.500000
 30
0.0
 10
12.312000
 20
10.750000
 30
0.0
  0
LWPOLYLINE
  5
140
100
AcDbEntity
  8
Layer_1
 62
7
100
AcDbPolyline
 90
4
 70
1
 10
11.562000
 20
10.250000
 30
0.0
 10
10.812000
 20
10.250000
 30
0.0
 10
10.812000
 20
10.000000
 30
0.0
 10
11.562000
 20
10.000000
 30
0.0
  0
LWPOLYLINE
  5
141
100
AcDbEntity
  8
Layer_1
 62
7
100
AcDbPolyline
 90
4
 70
1
 10
7.062000
 20
10.250000
 30
0.0
 10
7.812000
 20
10.250000
 30
0.0
 10
7.812000
 20
10.000000
 30
0.0
 10
7.062000
 20
10.000000
 30
0.0
  0
SPLINE
  5
142
100
AcDbEntity
  8
Layer_1
 62
7
100
AcDbSpline
 70
8
 71
3
 72
8
 73
4
 74
0
 40
0
 40
0
 40
0
 40
0
 40
1
 40
1
 40
1
 40
1
 10
8.568511
 20
9.993490
 30
0.0
 10
8.430011
 20
9.993490
 30
0.0
 10
8.318511
 20
10.104990
 30
0.0
 10
8.318511
 20
10.243490
 30
0.0
  0
SPLINE
  5
143
100
AcDbEntity
  8
Layer_1
 62
7
100
AcDbSpline
 70
8
 71
3
 72
8
 73
4
 74
0
 40
0
 40
0
 40
0
 40
0
 40
1
 40
1
 40
1
 40
1
 10
8.318511
 20
10.243490
 30
0.0
 10
8.318511
 20
10.381989
 30
0.0
 10
8.430011
 20
10.493490
 30
0.0
 10
8.568511
 20
10.493490
 30
0.0
  0
LWPOLYLINE
  5
144
100
AcDbEntity
  8
Layer_1
 62
7
100
AcDbPolyline
 90
2
 70
0
 10
10.068510
 20
9.993490
 30
0.0
 10
8.568511
 20
9.993490
 30
0.0
  0
SPLINE
  5
145
100
AcDbEntity
  8
Layer_1
 62
7
100
AcDbSpline
 70
8
 71
3
 72
8
 73
4
 74
0
 40
0
 40
0
 40
0
 40
0
 40
1
 40
1
 40
1
 40
1
 10
10.068510
 20
10.493490
 30
0.0
 10
10.207010
 20
10.493490
 30
0.0
 10
10.318510
 20
10.381989
 30
0.0
 10
10.318510
 20
10.243490
 30
0.0
  0
SPLINE
  5
146
100
AcDbEntity
  8
Layer_1
 62
7
100
AcDbSpline
 70
8
 71
3
 72
8
 73
4
 74
0
 40
0
 40
0
 40
0
 40
0
 40
1
 40
1
 40
1
 40
1
 10
10.318510
 20
10.243490
 30
0.0
 10
10.318510
 20
10.104990
 30
0.0
 10
10.207010
 20
9.993490
 30
0.0
 10
10.068510
 20
9.993490
 30
0.0
  0
LWPOLYLINE
  5
147
100
AcDbEntity
  8
Layer_1
 62
7
100
AcDbPolyline
 90
2
 70
0
 10
8.568511
 20
10.493490
 30
0.0
 10
10.068510
 20
10.493490
 30
0.0
  0
LWPOLYLINE
  5
148
100
AcDbEntity
  8
Layer_1
 62
7
100
AcDbPolyline
 90
1
 70
1
 10
10.068510
 20
9.993490
 30
0.0
  0
SPLINE
  5
149
100
AcDbEntity
  8
Layer_1
 62
7
100
AcDbSpline
 70
8
 71
3
 72
8
 73
4
 74
0
 40
0
 40
0
 40
0
 40
0
 40
1
 40
1
 40
1
 40
1
 10
7.742004
 20
2.312480
 30
0.0
 10
7.694265
 20
2.312480
 30
0.0
 10
7.648481
 20
2.331445
 30
0.0
 10
7.614725
 20
2.365201
 30
0.0
  0
SPLINE
  5
14a
100
AcDbEntity
  8
Layer_1
 62
7
100
AcDbSpline
 70
8
 71
3
 72
8
 73
4
 74
0
 40
0
 40
0
 40
0
 40
0
 40
1
 40
1
 40
1
 40
1
 10
7.614725
 20
2.365201
 30
0.0
 10
7.580968
 20
2.398958
 30
0.0
 10
7.562004
 20
2.444741
 30
0.0
 10
7.562004
 20
2.492480
 30
0.0
  0
SPLINE
  5
14b
100
AcDbEntity
  8
Layer_1
 62
7
100
AcDbSpline
 70
8
 71
3
 72
8
 73
4
 74
0
 40
0
 40
0
 40
0
 40
0
 40
1
 40
1
 40
1
 40
1
 10
7.562004
 20
2.492480
 30
0.0
 10
7.562004
 20
2.540219
 30
0.0
 10
7.580968
 20
2.586003
 30
0.0
 10
7.614725
 20
2.619760
 30
0.0
  0
SPLINE
  5
14c
100
AcDbEntity
  8
Layer_1
 62
7
100
AcDbSpline
 70
8
 71
3
 72
8
 73
4
 74
0
 40
0
 40
0
 40
0
 40
0
 40
1
 40
1
 40
1
 40
1
 10
7.614725
 20
2.619760
 30
0.0
 10
7.648481
 20
2.653516
 30
0.0
 10
7.694265
 20
2.672480
 30
0.0
 10
7.742004
 20
2.672480
 30
0.0
  0
SPLINE
  5
14d
100
AcDbEntity
  8
Layer_1
 62
7
100
AcDbSpline
 70
8
 71
3
 72
8
 73
4
 74
0
 40
0
 40
0
 40
0
 40
0
 40
1
 40
1
 40
1
 40
1
 10
7.742004
 20
2.672480
 30
0.0
 10
7.789743
 20
2.672480
 30
0.0
 10
7.835527
 20
2.653516
 30
0.0
 10
7.869283
 20
2.619760
 30
0.0
  0
SPLINE
  5
14e
100
AcDbEntity
  8
Layer_1
 62
7
100
AcDbSpline
 70
8
 71
3
 72
8
 73
4
 74
0
 40
0
 40
0
 40
0
 40
0
 40
1
 40
1
 40
1
 40
1
 10
7.869283
 20
2.619760
 30
0.0
 10
7.903040
 20
2.586003
 30
0.0
 10
7.922004
 20
2.540219
 30
0.0
 10
7.922004
 20
2.492480
 30
0.0
  0
SPLINE
  5
14f
100
AcDbEntity
  8
Layer_1
 62
7
100
AcDbSpline
 70
8
 71
3
 72
8
 73
4
 74
0
 40
0
 40
0
 40
0
 40
0
 40
1
 40
1
 40
1
 40
1
 10
7.922004
 20
2.492480
 30
0.0
 10
7.922004
 20
2.444741
 30
0.0
 10
7.903040
 20
2.398958
 30
0.0
 10
7.869283
 20
2.365201
 30
0.0
  0
SPLINE
  5
150
100
AcDbEntity
  8
Layer_1
 62
7
100
AcDbSpline
 70
8
 71
3
 72
8
 73
4
 74
0
 40
0
 40
0
 40
0
 40
0
 40
1
 40
1
 40
1
 40
1
 10
7.869283
 20
2.365201
 30
0.0
 10
7.835527
 20
2.331445
 30
0.0
 10
7.789743
 20
2.312480
 30
0.0
 10
7.742004
 20
2.312480
 30
0.0
  0
LWPOLYLINE
  5
151
100
AcDbEntity
  8
Layer_1
 62
7
100
AcDbPolyline
 90
22
 70
1
 10
6.561983
 20
1.000001
 30
0.0
 10
6.561983
 20
0.750001
 30
0.0
 10
6.311983
 20
0.750001
 30
0.0
 10
6.311983
 20
0.500001
 30
0.0
 10
6.561983
 20
0.500001
 30
0.0
 10
6.561983
 20
0.250001
 30
0.0
 10
12.311983
 20
0.250001
 30
0.0
 10
12.311983
 20
0.500001
 30
0.0
 10
12.061983
 20
0.500001
 30
0.0
 10
12.061983
 20
0.750001
 30
0.0
 10
12.311983
 20
0.750001
 30
0.0
 10
12.311983
 20
1.000001
 30
0.0
 10
11.061983
 20
1.000001
 30
0.0
 10
11.061983
 20
0.750001
 30
0.0
 10
10.061983
 20
0.750001
 30
0.0
 10
10.061983
 20
1.000001
 30
0.0
 10
9.561983
 20
1.000001
 30
0.0
 10
9.061983
 20
1.000001
 30
0.0
 10
8.561983
 20
1.000001
 30
0.0
 10
8.561983
 20
0.750001
 30
0.0
 10
7.561983
 20
0.750001
 30
0.0
 10
7.561983
 20
1.000001
 30
0.0
  0
SPLINE
  5
152
100
AcDbEntity
  8
Layer_1
 62
7
100
AcDbSpline
 70
8
 71
3
 72
8
 73
4
 74
0
 40
0
 40
0
 40
0
 40
0
 40
1
 40
1
 40
1
 40
1
 10
7.742004
 20
5.452480
 30
0.0
 10
7.694265
 20
5.452480
 30
0.0
 10
7.648481
 20
5.471445
 30
0.0
 10
7.614725
 20
5.505201
 30
0.0
  0
SPLINE
  5
153
100
AcDbEntity
  8
Layer_1
 62
7
100
AcDbSpline
 70
8
 71
3
 72
8
 73
4
 74
0
 40
0
 40
0
 40
0
 40
0
 40
1
 40
1
 40
1
 40
1
 10
7.614725
 20
5.505201
 30
0.0
 10
7.580968
 20
5.538958
 30
0.0
 10
7.562004
 20
5.584741
 30
0.0
 10
7.562004
 20
5.632480
 30
0.0
  0
SPLINE
  5
154
100
AcDbEntity
  8
Layer_1
 62
7
100
AcDbSpline
 70
8
 71
3
 72
8
 73
4
 74
0
 40
0
 40
0
 40
0
 40
0
 40
1
 40
1
 40
1
 40
1
 10
7.562004
 20
5.632480
 30
0.0
 10
7.562004
 20
5.680219
 30
0.0
 10
7.580968
 20
5.726003
 30
0.0
 10
7.614725
 20
5.759760
 30
0.0
  0
SPLINE
  5
155
100
AcDbEntity
  8
Layer_1
 62
7
100
AcDbSpline
 70
8
 71
3
 72
8
 73
4
 74
0
 40
0
 40
0
 40
0
 40
0
 40
1
 40
1
 40
1
 40
1
 10
7.614725
 20
5.759760
 30
0.0
 10
7.648481
 20
5.793516
 30
0.0
 10
7.694265
 20
5.812480
 30
0.0
 10
7.742004
 20
5.812480
 30
0.0
  0
SPLINE
  5
156
100
AcDbEntity
  8
Layer_1
 62
7
100
AcDbSpline
 70
8
 71
3
 72
8
 73
4
 74
0
 40
0
 40
0
 40
0
 40
0
 40
1
 40
1
 40
1
 40
1
 10
7.742004
 20
5.812480
 30
0.0
 10
7.789743
 20
5.812480
 30
0.0
 10
7.835527
 20
5.793516
 30
0.0
 10
7.869283
 20
5.759760
 30
0.0
  0
SPLINE
  5
157
100
AcDbEntity
  8
Layer_1
 62
7
100
AcDbSpline
 70
8
 71
3
 72
8
 73
4
 74
0
 40
0
 40
0
 40
0
 40
0
 40
1
 40
1
 40
1
 40
1
 10
7.869283
 20
5.759760
 30
0.0
 10
7.903040
 20
5.726003
 30
0.0
 10
7.922004
 20
5.680219
 30
0.0
 10
7.922004
 20
5.632480
 30
0.0
  0
SPLINE
  5
158
100
AcDbEntity
  8
Layer_1
 62
7
100
AcDbSpline
 70
8
 71
3
 72
8
 73
4
 74
0
 40
0
 40
0
 40
0
 40
0
 40
1
 40
1
 40
1
 40
1
 10
7.922004
 20
5.632480
 30
0.0
 10
7.922004
 20
5.584741
 30
0.0
 10
7.903040
 20
5.538958
 30
0.0
 10
7.869283
 20
5.505201
 30
0.0
  0
SPLINE
  5
159
100
AcDbEntity
  8
Layer_1
 62
7
100
AcDbSpline
 70
8
 71
3
 72
8
 73
4
 74
0
 40
0
 40
0
 40
0
 40
0
 40
1
 40
1
 40
1
 40
1
 10
7.869283
 20
5.505201
 30
0.0
 10
7.835527
 20
5.471445
 30
0.0
 10
7.789743
 20
5.452480
 30
0.0
 10
7.742004
 20
5.452480
 30
0.0
  0
LWPOLYLINE
  5
15a
100
AcDbEntity
  8
Layer_1
 62
7
100
AcDbPolyline
 90
1
 70
1
 10
7.742004
 20
2.312480
 30
0.0
  0
SPLINE
  5
15b
100
AcDbEntity
  8
Layer_1
 62
7
100
AcDbSpline
 70
8
 71
3
 72
8
 73
4
 74
0
 40
0
 40
0
 40
0
 40
0
 40
1
 40
1
 40
1
 40
1
 10
10.882004
 20
2.312480
 30
0.0
 10
10.929743
 20
2.312480
 30
0.0
 10
10.975527
 20
2.331445
 30
0.0
 10
11.009283
 20
2.365201
 30
0.0
  0
SPLINE
  5
15c
100
AcDbEntity
  8
Layer_1
 62
7
100
AcDbSpline
 70
8
 71
3
 72
8
 73
4
 74
0
 40
0
 40
0
 40
0
 40
0
 40
1
 40
1
 40
1
 40
1
 10
11.009283
 20
2.365201
 30
0.0
 10
11.043040
 20
2.398958
 30
0.0
 10
11.062004
 20
2.444741
 30
0.0
 10
11.062004
 20
2.492480
 30
0.0
  0
SPLINE
  5
15d
100
AcDbEntity
  8
Layer_1
 62
7
100
AcDbSpline
 70
8
 71
3
 72
8
 73
4
 74
0
 40
0
 40
0
 40
0
 40
0
 40
1
 40
1
 40
1
 40
1
 10
11.062004
 20
2.492480
 30
0.0
 10
11.062004
 20
2.540219
 30
0.0
 10
11.043040
 20
2.586003
 30
0.0
 10
11.009283
 20
2.619760
 30
0.0
  0
SPLINE
  5
15e
100
AcDbEntity
  8
Layer_1
 62
7
100
AcDbSpline
 70
8
 71
3
 72
8
 73
4
 74
0
 40
0
 40
0
 40
0
 40
0
 40
1
 40
1
 40
1
 40
1
 10
11.009283
 20
2.619760
 30
0.0
 10
10.975527
 20
2.653516
 30
0.0
 10
10.929743
 20
2.672480
 30
0.0
 10
10.882004
 20
2.672480
 30
0.0
  0
SPLINE
  5
15f
100
AcDbEntity
  8
Layer_1
 62
7
100
AcDbSpline
 70
8
 71
3
 72
8
 73
4
 74
0
 40
0
 40
0
 40
0
 40
0
 40
1
 40
1
 40
1
 40
1
 10
10.882004
 20
2.672480
 30
0.0
 10
10.834265
 20
2.672480
 30
0.0
 10
10.788481
 20
2.653516
 30
0.0
 10
10.754725
 20
2.619760
 30
0.0
  0
SPLINE
  5
160
100
AcDbEntity
  8
Layer_1
 62
7
100
AcDbSpline
 70
8
 71
3
 72
8
 73
4
 74
0
 40
0
 40
0
 40
0
 40
0
 40
1
 40
1
 40
1
 40
1
 10
10.754725
 20
2.619760
 30
0.0
 10
10.720968
 20
2.586003
 30
0.0
 10
10.702004
 20
2.540219
 30
0.0
 10
10.702004
 20
2.492480
 30
0.0
  0
SPLINE
  5
161
100
AcDbEntity
  8
Layer_1
 62
7
100
AcDbSpline
 70
8
 71
3
 72
8
 73
4
 74
0
 40
0
 40
0
 40
0
 40
0
 40
1
 40
1
 40
1
 40
1
 10
10.702004
 20
2.492480
 30
0.0
 10
10.702004
 20
2.444741
 30
0.0
 10
10.720968
 20
2.398958
 30
0.0
 10
10.754725
 20
2.365201
 30
0.0
  0
SPLINE
  5
162
100
AcDbEntity
  8
Layer_1
 62
7
100
AcDbSpline
 70
8
 71
3
 72
8
 73
4
 74
0
 40
0
 40
0
 40
0
 40
0
 40
1
 40
1
 40
1
 40
1
 10
10.754725
 20
2.365201
 30
0.0
 10
10.788481
 20
2.331445
 30
0.0
 10
10.834265
 20
2.312480
 30
0.0
 10
10.882004
 20
2.312480
 30
0.0
  0
LWPOLYLINE
  5
163
100
AcDbEntity
  8
Layer_1
 62
7
100
AcDbPolyline
 90
1
 70
1
 10
7.742004
 20
5.452480
 30
0.0
  0
SPLINE
  5
164
100
AcDbEntity
  8
Layer_1
 62
7
100
AcDbSpline
 70
8
 71
3
 72
8
 73
4
 74
0
 40
0
 40
0
 40
0
 40
0
 40
1
 40
1
 40
1
 40
1
 10
10.882004
 20
5.452480
 30
0.0
 10
10.929743
 20
5.452480
 30
0.0
 10
10.975527
 20
5.471445
 30
0.0
 10
11.009283
 20
5.505201
 30
0.0
  0
SPLINE
  5
165
100
AcDbEntity
  8
Layer_1
 62
7
100
AcDbSpline
 70
8
 71
3
 72
8
 73
4
 74
0
 40
0
 40
0
 40
0
 40
0
 40
1
 40
1
 40
1
 40
1
 10
11.009283
 20
5.505201
 30
0.0
 10
11.043040
 20
5.538958
 30
0.0
 10
11.062004
 20
5.584741
 30
0.0
 10
11.062004
 20
5.632480
 30
0.0
  0
SPLINE
  5
166
100
AcDbEntity
  8
Layer_1
 62
7
100
AcDbSpline
 70
8
 71
3
 72
8
 73
4
 74
0
 40
0
 40
0
 40
0
 40
0
 40
1
 40
1
 40
1
 40
1
 10
11.062004
 20
5.632480
 30
0.0
 10
11.062004
 20
5.680219
 30
0.0
 10
11.043040
 20
5.726003
 30
0.0
 10
11.009283
 20
5.759760
 30
0.0
  0
SPLINE
  5
167
100
AcDbEntity
  8
Layer_1
 62
7
100
AcDbSpline
 70
8
 71
3
 72
8
 73
4
 74
0
 40
0
 40
0
 40
0
 40
0
 40
1
 40
1
 40
1
 40
1
 10
11.009283
 20
5.759760
 30
0.0
 10
10.975527
 20
5.793516
 30
0.0
 10
10.929743
 20
5.812480
 30
0.0
 10
10.882004
 20
5.812480
 30
0.0
  0
SPLINE
  5
168
100
AcDbEntity
  8
Layer_1
 62
7
100
AcDbSpline
 70
8
 71
3
 72
8
 73
4
 74
0
 40
0
 40
0
 40
0
 40
0
 40
1
 40
1
 40
1
 40
1
 10
10.882004
 20
5.812480
 30
0.0
 10
10.834265
 20
5.812480
 30
0.0
 10
10.788481
 20
5.793516
 30
0.0
 10
10.754725
 20
5.759760
 30
0.0
  0
SPLINE
  5
169
100
AcDbEntity
  8
Layer_1
 62
7
100
AcDbSpline
 70
8
 71
3
 72
8
 73
4
 74
0
 40
0
 40
0
 40
0
 40
0
 40
1
 40
1
 40
1
 40
1
 10
10.754725
 20
5.759760
 30
0.0
 10
10.720968
 20
5.726003
 30
0.0
 10
10.702004
 20
5.680219
 30
0.0
 10
10.702004
 20
5.632480
 30
0.0
  0
SPLINE
  5
16a
100
AcDbEntity
  8
Layer_1
 62
7
100
AcDbSpline
 70
8
 71
3
 72
8
 73
4
 74
0
 40
0
 40
0
 40
0
 40
0
 40
1
 40
1
 40
1
 40
1
 10
10.702004
 20
5.632480
 30
0.0
 10
10.702004
 20
5.584741
 30
0.0
 10
10.720968
 20
5.538958
 30
0.0
 10
10.754725
 20
5.505201
 30
0.0
  0
SPLINE
  5
16b
100
AcDbEntity
  8
Layer_1
 62
7
100
AcDbSpline
 70
8
 71
3
 72
8
 73
4
 74
0
 40
0
 40
0
 40
0
 40
0
 40
1
 40
1
 40
1
 40
1
 10
10.754725
 20
5.505201
 30
0.0
 10
10.788481
 20
5.471445
 30
0.0
 10
10.834265
 20
5.452480
 30
0.0
 10
10.882004
 20
5.452480
 30
0.0
  0
LWPOLYLINE
  5
16c
100
AcDbEntity
  8
Layer_1
 62
7
100
AcDbPolyline
 90
1
 70
1
 10
10.882004
 20
2.312480
 30
0.0
  0
LWPOLYLINE
  5
16d
100
AcDbEntity
  8
Layer_1
 62
7
100
AcDbPolyline
 90
1
 70
1
 10
10.882004
 20
5.452480
 30
0.0
  0
SPLINE
  5
16e
100
AcDbEntity
  8
Layer_1
 62
7
100
AcDbSpline
 70
8
 71
3
 72
8
 73
4
 74
0
 40
0
 40
0
 40
0
 40
0
 40
1
 40
1
 40
1
 40
1
 10
11.812003
 20
3.062480
 30
0.0
 10
11.673503
 20
3.062480
 30
0.0
 10
11.562003
 20
3.173980
 30
0.0
 10
11.562003
 20
3.312480
 30
0.0
  0
LWPOLYLINE
  5
16f
100
AcDbEntity
  8
Layer_1
 62
7
100
AcDbPolyline
 90
18
 70
0
 10
6.312003
 20
1.812480
 30
0.0
 10
6.562003
 20
1.812480
 30
0.0
 10
6.562003
 20
1.312480
 30
0.0
 10
7.562003
 20
1.312480
 30
0.0
 10
7.562003
 20
1.062480
 30
0.0
 10
8.562003
 20
1.062480
 30
0.0
 10
8.562003
 20
1.312480
 30
0.0
 10
10.062003
 20
1.312480
 30
0.0
 10
10.062003
 20
1.062480
 30
0.0
 10
11.062003
 20
1.062480
 30
0.0
 10
11.062003
 20
1.312480
 30
0.0
 10
12.062003
 20
1.312480
 30
0.0
 10
12.062003
 20
1.812480
 30
0.0
 10
12.312003
 20
1.812480
 30
0.0
 10
12.312003
 20
2.562480
 30
0.0
 10
12.062003
 20
2.562480
 30
0.0
 10
12.062003
 20
3.062480
 30
0.0
 10
11.812003
 20
3.062480
 30
0.0
  0
SPLINE
  5
170
100
AcDbEntity
  8
Layer_1
 62
7
100
AcDbSpline
 70
8
 71
3
 72
8
 73
4
 74
0
 40
0
 40
0
 40
0
 40
0
 40
1
 40
1
 40
1
 40
1
 10
11.562003
 20
4.812480
 30
0.0
 10
11.562003
 20
4.950980
 30
0.0
 10
11.673503
 20
5.062480
 30
0.0
 10
11.812003
 20
5.062480
 30
0.0
  0
LWPOLYLINE
  5
171
100
AcDbEntity
  8
Layer_1
 62
7
100
AcDbPolyline
 90
2
 70
0
 10
11.562003
 20
3.312480
 30
0.0
 10
11.562003
 20
4.812480
 30
0.0
  0
SPLINE
  5
172
100
AcDbEntity
  8
Layer_1
 62
7
100
AcDbSpline
 70
8
 71
3
 72
8
 73
4
 74
0
 40
0
 40
0
 40
0
 40
0
 40
1
 40
1
 40
1
 40
1
 10
6.812003
 20
5.062480
 30
0.0
 10
6.950503
 20
5.062480
 30
0.0
 10
7.062003
 20
4.950980
 30
0.0
 10
7.062003
 20
4.812480
 30
0.0
  0
LWPOLYLINE
  5
173
100
AcDbEntity
  8
Layer_1
 62
7
100
AcDbPolyline
 90
22
 70
0
 10
11.812003
 20
5.062480
 30
0.0
 10
12.062003
 20
5.062480
 30
0.0
 10
12.062003
 20
5.562480
 30
0.0
 10
12.312003
 20
5.562480
 30
0.0
 10
12.312003
 20
6.312480
 30
0.0
 10
12.062003
 20
6.312480
 30
0.0
 10
12.062003
 20
6.812480
 30
0.0
 10
11.062003
 20
6.812480
 30
0.0
 10
11.062003
 20
7.062480
 30
0.0
 10
10.062003
 20
7.062480
 30
0.0
 10
10.062003
 20
6.812480
 30
0.0
 10
8.562003
 20
6.812480
 30
0.0
 10
8.562003
 20
7.062480
 30
0.0
 10
7.562003
 20
7.062480
 30
0.0
 10
7.562003
 20
6.812480
 30
0.0
 10
6.562003
 20
6.812480
 30
0.0
 10
6.562003
 20
6.312480
 30
0.0
 10
6.312003
 20
6.312480
 30
0.0
 10
6.312003
 20
5.562480
 30
0.0
 10
6.562003
 20
5.562480
 30
0.0
 10
6.562003
 20
5.062480
 30
0.0
 10
6.812003
 20
5.062480
 30
0.0
  0
SPLINE
  5
174
100
AcDbEntity
  8
Layer_1
 62
7
100
AcDbSpline
 70
8
 71
3
 72
8
 73
4
 74
0
 40
0
 40
0
 40
0
 40
0
 40
1
 40
1
 40
1
 40
1
 10
7.062003
 20
3.312480
 30
0.0
 10
7.062003
 20
3.173980
 30
0.0
 10
6.950503
 20
3.062480
 30
0.0
 10
6.812003
 20
3.062480
 30
0.0
  0
LWPOLYLINE
  5
175
100
AcDbEntity
  8
Layer_1
 62
7
100
AcDbPolyline
 90
2
 70
0
 10
7.062003
 20
4.812480
 30
0.0
 10
7.062003
 20
3.312480
 30
0.0
  0
LWPOLYLINE
  5
176
100
AcDbEntity
  8
Layer_1
 62
7
100
AcDbPolyline
 90
5
 70
0
 10
6.812003
 20
3.062480
 30
0.0
 10
6.562003
 20
3.062480
 30
0.0
 10
6.562003
 20
2.562480
 30
0.0
 10
6.312003
 20
2.562480
 30
0.0
 10
6.312003
 20
1.812480
 30
0.0
  0
SPLINE
  5
177
100
AcDbEntity
  8
Layer_1
 62
7
100
AcDbSpline
 70
8
 71
3
 72
8
 73
4
 74
0
 40
0
 40
0
 40
0
 40
0
 40
1
 40
1
 40
1
 40
1
 10
13.125000
 20
6.750000
 30
0.0
 10
12.986500
 20
6.750000
 30
0.0
 10
12.875000
 20
6.861500
 30
0.0
 10
12.875000
 20
7.000000
 30
0.0
  0
LWPOLYLINE
  5
178
100
AcDbEntity
  8
Layer_1
 62
7
100
AcDbPolyline
 90
17
 70
0
 10
13.125000
 20
10.500000
 30
0.0
 10
12.875000
 20
10.500000
 30
0.0
 10
12.875000
 20
10.750000
 30
0.0
 10
12.625000
 20
10.750000
 30
0.0
 10
12.625000
 20
10.500000
 30
0.0
 10
12.375000
 20
10.500000
 30
0.0
 10
12.375000
 20
5.000000
 30
0.0
 10
12.625000
 20
5.000000
 30
0.0
 10
12.625000
 20
4.750000
 30
0.0
 10
12.875000
 20
4.750000
 30
0.0
 10
12.875000
 20
5.000000
 30
0.0
 10
13.125000
 20
5.000000
 30
0.0
 10
13.125000
 20
5.500000
 30
0.0
 10
12.875000
 20
5.500000
 30
0.0
 10
12.875000
 20
6.250000
 30
0.0
 10
13.125000
 20
6.250000
 30
0.0
 10
13.125000
 20
6.750000
 30
0.0
  0
SPLINE
  5
179
100
AcDbEntity
  8
Layer_1
 62
7
100
AcDbSpline
 70
8
 71
3
 72
8
 73
4
 74
0
 40
0
 40
0
 40
0
 40
0
 40
1
 40
1
 40
1
 40
1
 10
12.875000
 20
8.500000
 30
0.0
 10
12.875000
 20
8.638500
 30
0.0
 10
12.986500
 20
8.750000
 30
0.0
 10
13.125000
 20
8.750000
 30
0.0
  0
LWPOLYLINE
  5
17a
100
AcDbEntity
  8
Layer_1
 62
7
100
AcDbPolyline
 90
2
 70
0
 10
12.875000
 20
7.000000
 30
0.0
 10
12.875000
 20
8.500000
 30
0.0
  0
SPLINE
  5
17b
100
AcDbEntity
  8
Layer_1
 62
7
100
AcDbSpline
 70
8
 71
3
 72
8
 73
4
 74
0
 40
0
 40
0
 40
0
 40
0
 40
1
 40
1
 40
1
 40
1
 10
6.000000
 20
4.938000
 30
0.0
 10
5.861500
 20
4.938000
 30
0.0
 10
5.750000
 20
4.826500
 30
0.0
 10
5.750000
 20
4.688000
 30
0.0
  0
LWPOLYLINE
  5
17c
100
AcDbEntity
  8
Layer_1
 62
7
100
AcDbPolyline
 90
6
 70
0
 10
13.125000
 20
8.750000
 30
0.0
 10
13.125000
 20
9.250000
 30
0.0
 10
12.875000
 20
9.250000
 30
0.0
 10
12.875000
 20
10.000000
 30
0.0
 10
13.125000
 20
10.000000
 30
0.0
 10
13.125000
 20
10.500000
 30
0.0
  0
SPLINE
  5
17d
100
AcDbEntity
  8
Layer_1
 62
7
100
AcDbSpline
 70
8
 71
3
 72
8
 73
4
 74
0
 40
0
 40
0
 40
0
 40
0
 40
1
 40
1
 40
1
 40
1
 10
5.750000
 20
3.438000
 30
0.0
 10
5.750000
 20
3.299500
 30
0.0
 10
5.861500
 20
3.188000
 30
0.0
 10
6.000000
 20
3.188000
 30
0.0
  0
LWPOLYLINE
  5
17e
100
AcDbEntity
  8
Layer_1
 62
7
100
AcDbPolyline
 90
2
 70
0
 10
5.750000
 20
4.688000
 30
0.0
 10
5.750000
 20
3.438000
 30
0.0
  0
SPLINE
  5
17f
100
AcDbEntity
  8
Layer_1
 62
7
100
AcDbSpline
 70
8
 71
3
 72
8
 73
4
 74
0
 40
0
 40
0
 40
0
 40
0
 40
1
 40
1
 40
1
 40
1
 10
6.500000
 20
3.188000
 30
0.0
 10
6.638500
 20
3.188000
 30
0.0
 10
6.750000
 20
3.299500
 30
0.0
 10
6.750000
 20
3.438000
 30
0.0
  0
LWPOLYLINE
  5
180
100
AcDbEntity
  8
Layer_1
 62
7
100
AcDbPolyline
 90
2
 70
0
 10
6.000000
 20
3.188000
 30
0.0
 10
6.500000
 20
3.188000
 30
0.0
  0
SPLINE
  5
181
100
AcDbEntity
  8
Layer_1
 62
7
100
AcDbSpline
 70
8
 71
3
 72
8
 73
4
 74
0
 40
0
 40
0
 40
0
 40
0
 40
1
 40
1
 40
1
 40
1
 10
6.750000
 20
4.688000
 30
0.0
 10
6.750000
 20
4.826500
 30
0.0
 10
6.638500
 20
4.938000
 30
0.0
 10
6.500000
 20
4.938000
 30
0.0
  0
LWPOLYLINE
  5
182
100
AcDbEntity
  8
Layer_1
 62
7
100
AcDbPolyline
 90
2
 70
0
 10
6.750000
 20
3.438000
 30
0.0
 10
6.750000
 20
4.688000
 30
0.0
  0
LWPOLYLINE
  5
183
100
AcDbEntity
  8
Layer_1
 62
7
100
AcDbPolyline
 90
2
 70
0
 10
6.500000
 20
4.938000
 30
0.0
 10
6.000000
 20
4.938000
 30
0.0
  0
SPLINE
  5
184
100
AcDbEntity
  8
Layer_1
 62
7
100
AcDbSpline
 70
8
 71
3
 72
8
 73
4
 74
0
 40
0
 40
0
 40
0
 40
0
 40
1
 40
1
 40
1
 40
1
 10
6.168742
 20
4.583060
 30
0.0
 10
6.122295
 20
4.583059
 30
0.0
 10
6.079377
 20
4.558281
 30
0.0
 10
6.056152
 20
4.518058
 30
0.0
  0
SPLINE
  5
185
100
AcDbEntity
  8
Layer_1
 62
7
100
AcDbSpline
 70
8
 71
3
 72
8
 73
4
 74
0
 40
0
 40
0
 40
0
 40
0
 40
1
 40
1
 40
1
 40
1
 10
6.056152
 20
4.518058
 30
0.0
 10
6.032923
 20
4.477829
 30
0.0
 10
6.032923
 20
4.428262
 30
0.0
 10
6.056152
 20
4.388033
 30
0.0
  0
SPLINE
  5
186
100
AcDbEntity
  8
Layer_1
 62
7
100
AcDbSpline
 70
8
 71
3
 72
8
 73
4
 74
0
 40
0
 40
0
 40
0
 40
0
 40
1
 40
1
 40
1
 40
1
 10
6.056152
 20
4.388033
 30
0.0
 10
6.079377
 20
4.347810
 30
0.0
 10
6.122295
 20
4.323031
 30
0.0
 10
6.168742
 20
4.323030
 30
0.0
  0
LWPOLYLINE
  5
187
100
AcDbEntity
  8
Layer_1
 62
7
100
AcDbPolyline
 90
4
 70
0
 10
6.168742
 20
4.713065
 30
0.0
 10
6.428772
 20
4.713065
 30
0.0
 10
6.428772
 20
4.583060
 30
0.0
 10
6.168742
 20
4.583060
 30
0.0
  0
SPLINE
  5
188
100
AcDbEntity
  8
Layer_1
 62
7
100
AcDbSpline
 70
8
 71
3
 72
8
 73
4
 74
0
 40
0
 40
0
 40
0
 40
0
 40
1
 40
1
 40
1
 40
1
 10
6.393941
 20
4.193005
 30
0.0
 10
6.440383
 20
4.112556
 30
0.0
 10
6.440383
 20
4.013444
 30
0.0
 10
6.393941
 20
3.932995
 30
0.0
  0
SPLINE
  5
189
100
AcDbEntity
  8
Layer_1
 62
7
100
AcDbSpline
 70
8
 71
3
 72
8
 73
4
 74
0
 40
0
 40
0
 40
0
 40
0
 40
1
 40
1
 40
1
 40
1
 10
6.393941
 20
3.932995
 30
0.0
 10
6.379745
 20
3.908424
 30
0.0
 10
6.361622
 20
3.886343
 30
0.0
 10
6.340291
 20
3.867626
 30
0.0
  0
SPLINE
  5
18a
100
AcDbEntity
  8
Layer_1
 62
7
100
AcDbSpline
 70
8
 71
3
 72
8
 73
4
 74
0
 40
0
 40
0
 40
0
 40
0
 40
1
 40
1
 40
1
 40
1
 10
6.340291
 20
3.867626
 30
0.0
 10
6.361561
 20
3.849125
 30
0.0
 10
6.379681
 20
3.827288
 30
0.0
 10
6.393941
 20
3.802970
 30
0.0
  0
SPLINE
  5
18b
100
AcDbEntity
  8
Layer_1
 62
7
100
AcDbSpline
 70
8
 71
3
 72
8
 73
4
 74
0
 40
0
 40
0
 40
0
 40
0
 40
1
 40
1
 40
1
 40
1
 10
6.393941
 20
3.802970
 30
0.0
 10
6.440391
 20
3.722516
 30
0.0
 10
6.440391
 20
3.623393
 30
0.0
 10
6.393941
 20
3.542940
 30
0.0
  0
SPLINE
  5
18c
100
AcDbEntity
  8
Layer_1
 62
7
100
AcDbSpline
 70
8
 71
3
 72
8
 73
4
 74
0
 40
0
 40
0
 40
0
 40
0
 40
1
 40
1
 40
1
 40
1
 10
6.393941
 20
3.542940
 30
0.0
 10
6.347488
 20
3.462488
 30
0.0
 10
6.261642
 20
3.412930
 30
0.0
 10
6.168742
 20
3.412935
 30
0.0
  0
LWPOLYLINE
  5
18d
100
AcDbEntity
  8
Layer_1
 62
7
100
AcDbPolyline
 90
5
 70
0
 10
6.168742
 20
4.323030
 30
0.0
 10
6.185059
 20
4.323030
 30
0.0
 10
6.428772
 20
4.323030
 30
0.0
 10
6.428772
 20
4.193005
 30
0.0
 10
6.393941
 20
4.193005
 30
0.0
  0
SPLINE
  5
18e
100
AcDbEntity
  8
Layer_1
 62
7
100
AcDbSpline
 70
8
 71
3
 72
8
 73
4
 74
0
 40
0
 40
0
 40
0
 40
0
 40
1
 40
1
 40
1
 40
1
 10
6.168742
 20
3.542940
 30
0.0
 10
6.215188
 20
3.542941
 30
0.0
 10
6.258106
 20
3.567719
 30
0.0
 10
6.281331
 20
3.607942
 30
0.0
  0
SPLINE
  5
18f
100
AcDbEntity
  8
Layer_1
 62
7
100
AcDbSpline
 70
8
 71
3
 72
8
 73
4
 74
0
 40
0
 40
0
 40
0
 40
0
 40
1
 40
1
 40
1
 40
1
 10
6.281331
 20
3.607942
 30
0.0
 10
6.304560
 20
3.648171
 30
0.0
 10
6.304560
 20
3.697738
 30
0.0
 10
6.281331
 20
3.737967
 30
0.0
  0
SPLINE
  5
190
100
AcDbEntity
  8
Layer_1
 62
7
100
AcDbSpline
 70
8
 71
3
 72
8
 73
4
 74
0
 40
0
 40
0
 40
0
 40
0
 40
1
 40
1
 40
1
 40
1
 10
6.281331
 20
3.737967
 30
0.0
 10
6.258107
 20
3.778190
 30
0.0
 10
6.215188
 20
3.802969
 30
0.0
 10
6.168742
 20
3.802970
 30
0.0
  0
LWPOLYLINE
  5
191
100
AcDbEntity
  8
Layer_1
 62
7
100
AcDbPolyline
 90
4
 70
0
 10
6.168742
 20
3.412935
 30
0.0
 10
5.908712
 20
3.412935
 30
0.0
 10
5.908712
 20
3.542940
 30
0.0
 10
6.168742
 20
3.542940
 30
0.0
  0
SPLINE
  5
192
100
AcDbEntity
  8
Layer_1
 62
7
100
AcDbSpline
 70
8
 71
3
 72
8
 73
4
 74
0
 40
0
 40
0
 40
0
 40
0
 40
1
 40
1
 40
1
 40
1
 10
6.168742
 20
3.932995
 30
0.0
 10
6.215188
 20
3.932996
 30
0.0
 10
6.258106
 20
3.957775
 30
0.0
 10
6.281331
 20
3.997998
 30
0.0
  0
SPLINE
  5
193
100
AcDbEntity
  8
Layer_1
 62
7
100
AcDbSpline
 70
8
 71
3
 72
8
 73
4
 74
0
 40
0
 40
0
 40
0
 40
0
 40
1
 40
1
 40
1
 40
1
 10
6.281331
 20
3.997998
 30
0.0
 10
6.304553
 20
4.038222
 30
0.0
 10
6.304553
 20
4.087778
 30
0.0
 10
6.281331
 20
4.128002
 30
0.0
  0
SPLINE
  5
194
100
AcDbEntity
  8
Layer_1
 62
7
100
AcDbSpline
 70
8
 71
3
 72
8
 73
4
 74
0
 40
0
 40
0
 40
0
 40
0
 40
1
 40
1
 40
1
 40
1
 10
6.281331
 20
4.128002
 30
0.0
 10
6.258106
 20
4.168225
 30
0.0
 10
6.215188
 20
4.193004
 30
0.0
 10
6.168742
 20
4.193005
 30
0.0
  0
LWPOLYLINE
  5
195
100
AcDbEntity
  8
Layer_1
 62
7
100
AcDbPolyline
 90
4
 70
0
 10
6.168742
 20
3.802970
 30
0.0
 10
5.908712
 20
3.802970
 30
0.0
 10
5.908712
 20
3.932995
 30
0.0
 10
6.168742
 20
3.932995
 30
0.0
  0
SPLINE
  5
196
100
AcDbEntity
  8
Layer_1
 62
7
100
AcDbSpline
 70
8
 71
3
 72
8
 73
4
 74
0
 40
0
 40
0
 40
0
 40
0
 40
1
 40
1
 40
1
 40
1
 10
5.943543
 20
4.323030
 30
0.0
 10
5.897092
 20
4.403484
 30
0.0
 10
5.897092
 20
4.502607
 30
0.0
 10
5.943543
 20
4.583060
 30
0.0
  0
SPLINE
  5
197
100
AcDbEntity
  8
Layer_1
 62
7
100
AcDbSpline
 70
8
 71
3
 72
8
 73
4
 74
0
 40
0
 40
0
 40
0
 40
0
 40
1
 40
1
 40
1
 40
1
 10
5.943543
 20
4.583060
 30
0.0
 10
5.989996
 20
4.663512
 30
0.0
 10
6.075842
 20
4.713070
 30
0.0
 10
6.168742
 20
4.713065
 30
0.0
  0
LWPOLYLINE
  5
198
100
AcDbEntity
  8
Layer_1
 62
7
100
AcDbPolyline
 90
4
 70
0
 10
6.168742
 20
4.193005
 30
0.0
 10
5.908712
 20
4.193005
 30
0.0
 10
5.908712
 20
4.323030
 30
0.0
 10
5.943543
 20
4.323030
 30
0.0
  0
LWPOLYLINE
  5
199
100
AcDbEntity
  8
Layer_1
 62
7
100
AcDbPolyline
 90
1
 70
1
 10
6.168742
 20
4.713065
 30
0.0
  0
SPLINE
  5
19a
100
AcDbEntity
  8
Layer_1
 62
7
100
AcDbSpline
 70
8
 71
3
 72
8
 73
4
 74
0
 40
0
 40
0
 40
0
 40
0
 40
1
 40
1
 40
1
 40
1
 10
6.301778
 20
3.412935
 30
0.0
 10
6.319342
 20
3.422062
 30
0.0
 10
6.335933
 20
3.432948
 30
0.0
 10
6.351298
 20
3.445426
 30
0.0
  0
LWPOLYLINE
  5
19b
100
AcDbEntity
  8
Layer_1
 62
7
100
AcDbPolyline
 90
6
 70
0
 10
6.461283
 20
4.713065
 30
0.0
 10
6.591288
 20
4.713065
 30
0.0
 10
6.591288
 20
4.683239
 30
0.0
 10
6.591288
 20
4.680574
 30
0.0
 10
6.591288
 20
3.412935
 30
0.0
 10
6.301778
 20
3.412935
 30
0.0
  0
LWPOLYLINE
  5
19c
100
AcDbEntity
  8
Layer_1
 62
7
100
AcDbPolyline
 90
5
 70
0
 10
6.351298
 20
3.445426
 30
0.0
 10
6.558777
 20
3.445426
 30
0.0
 10
6.558777
 20
4.680574
 30
0.0
 10
6.461283
 20
4.680574
 30
0.0
 10
6.461283
 20
4.713065
 30
0.0
  0
SPLINE
  5
19d
100
AcDbEntity
  8
Layer_1
 62
7
100
AcDbSpline
 70
8
 71
3
 72
8
 73
4
 74
0
 40
0
 40
0
 40
0
 40
0
 40
1
 40
1
 40
1
 40
1
 10
6.508709
 20
4.583060
 30
0.0
 10
6.513021
 20
4.583061
 30
0.0
 10
6.517156
 20
4.581349
 30
0.0
 10
6.520205
 20
4.578300
 30
0.0
  0
SPLINE
  5
19e
100
AcDbEntity
  8
Layer_1
 62
7
100
AcDbSpline
 70
8
 71
3
 72
8
 73
4
 74
0
 40
0
 40
0
 40
0
 40
0
 40
1
 40
1
 40
1
 40
1
 10
6.520205
 20
4.578300
 30
0.0
 10
6.523253
 20
4.575251
 30
0.0
 10
6.524966
 20
4.571116
 30
0.0
 10
6.524965
 20
4.566804
 30
0.0
  0
SPLINE
  5
19f
100
AcDbEntity
  8
Layer_1
 62
7
100
AcDbSpline
 70
8
 71
3
 72
8
 73
4
 74
0
 40
0
 40
0
 40
0
 40
0
 40
1
 40
1
 40
1
 40
1
 10
6.524965
 20
4.566804
 30
0.0
 10
6.524966
 20
4.562493
 30
0.0
 10
6.523253
 20
4.558358
 30
0.0
 10
6.520205
 20
4.555309
 30
0.0
  0
SPLINE
  5
1a0
100
AcDbEntity
  8
Layer_1
 62
7
100
AcDbSpline
 70
8
 71
3
 72
8
 73
4
 74
0
 40
0
 40
0
 40
0
 40
0
 40
1
 40
1
 40
1
 40
1
 10
6.520205
 20
4.555309
 30
0.0
 10
6.517156
 20
4.552260
 30
0.0
 10
6.513021
 20
4.550548
 30
0.0
 10
6.508709
 20
4.550549
 30
0.0
  0
LWPOLYLINE
  5
1a1
100
AcDbEntity
  8
Layer_1
 62
7
100
AcDbPolyline
 90
2
 70
0
 10
6.458823
 20
4.583060
 30
0.0
 10
6.508709
 20
4.583060
 30
0.0
  0
LWPOLYLINE
  5
1a2
100
AcDbEntity
  8
Layer_1
 62
7
100
AcDbPolyline
 90
3
 70
0
 10
6.508709
 20
4.550549
 30
0.0
 10
6.458823
 20
4.550549
 30
0.0
 10
6.458823
 20
4.583060
 30
0.0
  0
SPLINE
  5
1a3
100
AcDbEntity
  8
Layer_1
 62
7
100
AcDbSpline
 70
8
 71
3
 72
8
 73
4
 74
0
 40
0
 40
0
 40
0
 40
0
 40
1
 40
1
 40
1
 40
1
 10
6.409466
 20
4.550549
 30
0.0
 10
6.422113
 20
4.519588
 30
0.0
 10
6.428668
 20
4.486479
 30
0.0
 10
6.428773
 20
4.453035
 30
0.0
  0
SPLINE
  5
1a4
100
AcDbEntity
  8
Layer_1
 62
7
100
AcDbSpline
 70
8
 71
3
 72
8
 73
4
 74
0
 40
0
 40
0
 40
0
 40
0
 40
1
 40
1
 40
1
 40
1
 10
6.428773
 20
4.453035
 30
0.0
 10
6.428724
 20
4.419610
 30
0.0
 10
6.422230
 20
4.386508
 30
0.0
 10
6.409649
 20
4.355541
 30
0.0
  0
LWPOLYLINE
  5
1a5
100
AcDbEntity
  8
Layer_1
 62
7
100
AcDbPolyline
 90
2
 70
0
 10
6.373841
 20
4.550549
 30
0.0
 10
6.409466
 20
4.550549
 30
0.0
  0
SPLINE
  5
1a6
100
AcDbEntity
  8
Layer_1
 62
7
100
AcDbSpline
 70
8
 71
3
 72
8
 73
4
 74
0
 40
0
 40
0
 40
0
 40
0
 40
1
 40
1
 40
1
 40
1
 10
6.373801
 20
4.355541
 30
0.0
 10
6.403081
 20
4.417243
 30
0.0
 10
6.403096
 20
4.488835
 30
0.0
 10
6.373840
 20
4.550549
 30
0.0
  0
LWPOLYLINE
  5
1a7
100
AcDbEntity
  8
Layer_1
 62
7
100
AcDbPolyline
 90
2
 70
0
 10
6.409649
 20
4.355541
 30
0.0
 10
6.373801
 20
4.355541
 30
0.0
  0
LWPOLYLINE
  5
1a8
100
AcDbEntity
  8
Layer_1
 62
7
100
AcDbPolyline
 90
1
 70
1
 10
6.373840
 20
4.550549
 30
0.0
  0
SPLINE
  5
1a9
100
AcDbEntity
  8
Layer_1
 62
7
100
AcDbSpline
 70
8
 71
3
 72
8
 73
4
 74
0
 40
0
 40
0
 40
0
 40
0
 40
1
 40
1
 40
1
 40
1
 10
6.508709
 20
4.526176
 30
0.0
 10
6.510415
 20
4.526176
 30
0.0
 10
6.512111
 20
4.525908
 30
0.0
 10
6.513734
 20
4.525380
 30
0.0
  0
SPLINE
  5
1aa
100
AcDbEntity
  8
Layer_1
 62
7
100
AcDbSpline
 70
8
 71
3
 72
8
 73
4
 74
0
 40
0
 40
0
 40
0
 40
0
 40
1
 40
1
 40
1
 40
1
 10
6.513734
 20
4.525380
 30
0.0
 10
6.520433
 20
4.523204
 30
0.0
 10
6.524967
 20
4.516961
 30
0.0
 10
6.524965
 20
4.509918
 30
0.0
  0
SPLINE
  5
1ab
100
AcDbEntity
  8
Layer_1
 62
7
100
AcDbSpline
 70
8
 71
3
 72
8
 73
4
 74
0
 40
0
 40
0
 40
0
 40
0
 40
1
 40
1
 40
1
 40
1
 10
6.524965
 20
4.509918
 30
0.0
 10
6.524966
 20
4.505607
 30
0.0
 10
6.523253
 20
4.501471
 30
0.0
 10
6.520205
 20
4.498423
 30
0.0
  0
SPLINE
  5
1ac
100
AcDbEntity
  8
Layer_1
 62
7
100
AcDbSpline
 70
8
 71
3
 72
8
 73
4
 74
0
 40
0
 40
0
 40
0
 40
0
 40
1
 40
1
 40
1
 40
1
 10
6.520205
 20
4.498423
 30
0.0
 10
6.517156
 20
4.495374
 30
0.0
 10
6.513021
 20
4.493662
 30
0.0
 10
6.508709
 20
4.493663
 30
0.0
  0
LWPOLYLINE
  5
1ad
100
AcDbEntity
  8
Layer_1
 62
7
100
AcDbPolyline
 90
2
 70
0
 10
6.450502
 20
4.526176
 30
0.0
 10
6.508709
 20
4.526176
 30
0.0
  0
SPLINE
  5
1ae
100
AcDbEntity
  8
Layer_1
 62
7
100
AcDbSpline
 70
8
 71
3
 72
8
 73
4
 74
0
 40
0
 40
0
 40
0
 40
0
 40
1
 40
1
 40
1
 40
1
 10
6.456971
 20
4.493663
 30
0.0
 10
6.456204
 20
4.499140
 30
0.0
 10
6.455281
 20
4.504595
 30
0.0
 10
6.454204
 20
4.510020
 30
0.0
  0
SPLINE
  5
1af
100
AcDbEntity
  8
Layer_1
 62
7
100
AcDbSpline
 70
8
 71
3
 72
8
 73
4
 74
0
 40
0
 40
0
 40
0
 40
0
 40
1
 40
1
 40
1
 40
1
 10
6.454204
 20
4.510020
 30
0.0
 10
6.453123
 20
4.515439
 30
0.0
 10
6.451889
 20
4.520825
 30
0.0
 10
6.450503
 20
4.526174
 30
0.0
  0
LWPOLYLINE
  5
1b0
100
AcDbEntity
  8
Layer_1
 62
7
100
AcDbPolyline
 90
2
 70
0
 10
6.508709
 20
4.493663
 30
0.0
 10
6.456971
 20
4.493663
 30
0.0
  0
LWPOLYLINE
  5
1b1
100
AcDbEntity
  8
Layer_1
 62
7
100
AcDbPolyline
 90
1
 70
1
 10
6.450503
 20
4.526174
 30
0.0
  0
SPLINE
  5
1b2
100
AcDbEntity
  8
Layer_1
 62
7
100
AcDbSpline
 70
8
 71
3
 72
8
 73
4
 74
0
 40
0
 40
0
 40
0
 40
0
 40
1
 40
1
 40
1
 40
1
 10
6.508709
 20
4.469291
 30
0.0
 10
6.510415
 20
4.469291
 30
0.0
 10
6.512111
 20
4.469023
 30
0.0
 10
6.513734
 20
4.468495
 30
0.0
  0
SPLINE
  5
1b3
100
AcDbEntity
  8
Layer_1
 62
7
100
AcDbSpline
 70
8
 71
3
 72
8
 73
4
 74
0
 40
0
 40
0
 40
0
 40
0
 40
1
 40
1
 40
1
 40
1
 10
6.513734
 20
4.468495
 30
0.0
 10
6.520433
 20
4.466319
 30
0.0
 10
6.524967
 20
4.460076
 30
0.0
 10
6.524965
 20
4.453033
 30
0.0
  0
SPLINE
  5
1b4
100
AcDbEntity
  8
Layer_1
 62
7
100
AcDbSpline
 70
8
 71
3
 72
8
 73
4
 74
0
 40
0
 40
0
 40
0
 40
0
 40
1
 40
1
 40
1
 40
1
 10
6.524965
 20
4.453033
 30
0.0
 10
6.524956
 20
4.444062
 30
0.0
 10
6.517680
 20
4.436796
 30
0.0
 10
6.508709
 20
4.436798
 30
0.0
  0
LWPOLYLINE
  5
1b5
100
AcDbEntity
  8
Layer_1
 62
7
100
AcDbPolyline
 90
2
 70
0
 10
6.458884
 20
4.469291
 30
0.0
 10
6.508709
 20
4.469291
 30
0.0
  0
SPLINE
  5
1b6
100
AcDbEntity
  8
Layer_1
 62
7
100
AcDbSpline
 70
8
 71
3
 72
8
 73
4
 74
0
 40
0
 40
0
 40
0
 40
0
 40
1
 40
1
 40
1
 40
1
 10
6.458884
 20
4.436798
 30
0.0
 10
6.459387
 20
4.442199
 30
0.0
 10
6.459740
 20
4.447612
 30
0.0
 10
6.459943
 20
4.453033
 30
0.0
  0
SPLINE
  5
1b7
100
AcDbEntity
  8
Layer_1
 62
7
100
AcDbSpline
 70
8
 71
3
 72
8
 73
4
 74
0
 40
0
 40
0
 40
0
 40
0
 40
1
 40
1
 40
1
 40
1
 10
6.459943
 20
4.453033
 30
0.0
 10
6.459741
 20
4.458460
 30
0.0
 10
6.459388
 20
4.463881
 30
0.0
 10
6.458884
 20
4.469289
 30
0.0
  0
LWPOLYLINE
  5
1b8
100
AcDbEntity
  8
Layer_1
 62
7
100
AcDbPolyline
 90
2
 70
0
 10
6.508709
 20
4.436798
 30
0.0
 10
6.458884
 20
4.436798
 30
0.0
  0
LWPOLYLINE
  5
1b9
100
AcDbEntity
  8
Layer_1
 62
7
100
AcDbPolyline
 90
1
 70
1
 10
6.458884
 20
4.469289
 30
0.0
  0
SPLINE
  5
1ba
100
AcDbEntity
  8
Layer_1
 62
7
100
AcDbSpline
 70
8
 71
3
 72
8
 73
4
 74
0
 40
0
 40
0
 40
0
 40
0
 40
1
 40
1
 40
1
 40
1
 10
6.508708
 20
4.412406
 30
0.0
 10
6.510415
 20
4.412406
 30
0.0
 10
6.512111
 20
4.412138
 30
0.0
 10
6.513733
 20
4.411611
 30
0.0
  0
SPLINE
  5
1bb
100
AcDbEntity
  8
Layer_1
 62
7
100
AcDbSpline
 70
8
 71
3
 72
8
 73
4
 74
0
 40
0
 40
0
 40
0
 40
0
 40
1
 40
1
 40
1
 40
1
 10
6.513733
 20
4.411611
 30
0.0
 10
6.520425
 20
4.409437
 30
0.0
 10
6.524958
 20
4.403204
 30
0.0
 10
6.524964
 20
4.396169
 30
0.0
  0
SPLINE
  5
1bc
100
AcDbEntity
  8
Layer_1
 62
7
100
AcDbSpline
 70
8
 71
3
 72
8
 73
4
 74
0
 40
0
 40
0
 40
0
 40
0
 40
1
 40
1
 40
1
 40
1
 10
6.524964
 20
4.396169
 30
0.0
 10
6.524965
 20
4.391857
 30
0.0
 10
6.523252
 20
4.387722
 30
0.0
 10
6.520204
 20
4.384673
 30
0.0
  0
SPLINE
  5
1bd
100
AcDbEntity
  8
Layer_1
 62
7
100
AcDbSpline
 70
8
 71
3
 72
8
 73
4
 74
0
 40
0
 40
0
 40
0
 40
0
 40
1
 40
1
 40
1
 40
1
 10
6.520204
 20
4.384673
 30
0.0
 10
6.517155
 20
4.381624
 30
0.0
 10
6.513020
 20
4.379912
 30
0.0
 10
6.508708
 20
4.379913
 30
0.0
  0
LWPOLYLINE
  5
1be
100
AcDbEntity
  8
Layer_1
 62
7
100
AcDbPolyline
 90
2
 70
0
 10
6.456970
 20
4.412406
 30
0.0
 10
6.508708
 20
4.412406
 30
0.0
  0
SPLINE
  5
1bf
100
AcDbEntity
  8
Layer_1
 62
7
100
AcDbSpline
 70
8
 71
3
 72
8
 73
4
 74
0
 40
0
 40
0
 40
0
 40
0
 40
1
 40
1
 40
1
 40
1
 10
6.450501
 20
4.379913
 30
0.0
 10
6.453269
 20
4.390612
 30
0.0
 10
6.455429
 20
4.401460
 30
0.0
 10
6.456970
 20
4.412404
 30
0.0
  0
LWPOLYLINE
  5
1c0
100
AcDbEntity
  8
Layer_1
 62
7
100
AcDbPolyline
 90
2
 70
0
 10
6.508708
 20
4.379913
 30
0.0
 10
6.450501
 20
4.379913
 30
0.0
  0
LWPOLYLINE
  5
1c1
100
AcDbEntity
  8
Layer_1
 62
7
100
AcDbPolyline
 90
1
 70
1
 10
6.456970
 20
4.412404
 30
0.0
  0
SPLINE
  5
1c2
100
AcDbEntity
  8
Layer_1
 62
7
100
AcDbSpline
 70
8
 71
3
 72
8
 73
4
 74
0
 40
0
 40
0
 40
0
 40
0
 40
1
 40
1
 40
1
 40
1
 10
6.508707
 20
4.355541
 30
0.0
 10
6.510414
 20
4.355542
 30
0.0
 10
6.512109
 20
4.355273
 30
0.0
 10
6.513732
 20
4.354746
 30
0.0
  0
SPLINE
  5
1c3
100
AcDbEntity
  8
Layer_1
 62
7
100
AcDbSpline
 70
8
 71
3
 72
8
 73
4
 74
0
 40
0
 40
0
 40
0
 40
0
 40
1
 40
1
 40
1
 40
1
 10
6.513732
 20
4.354746
 30
0.0
 10
6.520431
 20
4.352570
 30
0.0
 10
6.524965
 20
4.346327
 30
0.0
 10
6.524963
 20
4.339284
 30
0.0
  0
SPLINE
  5
1c4
100
AcDbEntity
  8
Layer_1
 62
7
100
AcDbSpline
 70
8
 71
3
 72
8
 73
4
 74
0
 40
0
 40
0
 40
0
 40
0
 40
1
 40
1
 40
1
 40
1
 10
6.524963
 20
4.339284
 30
0.0
 10
6.524964
 20
4.334972
 30
0.0
 10
6.523251
 20
4.330837
 30
0.0
 10
6.520203
 20
4.327788
 30
0.0
  0
SPLINE
  5
1c5
100
AcDbEntity
  8
Layer_1
 62
7
100
AcDbSpline
 70
8
 71
3
 72
8
 73
4
 74
0
 40
0
 40
0
 40
0
 40
0
 40
1
 40
1
 40
1
 40
1
 10
6.520203
 20
4.327788
 30
0.0
 10
6.517154
 20
4.324739
 30
0.0
 10
6.513019
 20
4.323027
 30
0.0
 10
6.508707
 20
4.323028
 30
0.0
  0
LWPOLYLINE
  5
1c6
100
AcDbEntity
  8
Layer_1
 62
7
100
AcDbPolyline
 90
2
 70
0
 10
6.458821
 20
4.355541
 30
0.0
 10
6.508707
 20
4.355541
 30
0.0
  0
LWPOLYLINE
  5
1c7
100
AcDbEntity
  8
Layer_1
 62
7
100
AcDbPolyline
 90
3
 70
0
 10
6.508707
 20
4.323028
 30
0.0
 10
6.458821
 20
4.323028
 30
0.0
 10
6.458821
 20
4.355541
 30
0.0
  0
SPLINE
  5
1c8
100
AcDbEntity
  8
Layer_1
 62
7
100
AcDbSpline
 70
8
 71
3
 72
8
 73
4
 74
0
 40
0
 40
0
 40
0
 40
0
 40
1
 40
1
 40
1
 40
1
 10
6.510029
 20
4.193005
 30
0.0
 10
6.518999
 20
4.193007
 30
0.0
 10
6.526275
 20
4.185740
 30
0.0
 10
6.526285
 20
4.176770
 30
0.0
  0
SPLINE
  5
1c9
100
AcDbEntity
  8
Layer_1
 62
7
100
AcDbSpline
 70
8
 71
3
 72
8
 73
4
 74
0
 40
0
 40
0
 40
0
 40
0
 40
1
 40
1
 40
1
 40
1
 10
6.526285
 20
4.176770
 30
0.0
 10
6.526286
 20
4.172458
 30
0.0
 10
6.524573
 20
4.168323
 30
0.0
 10
6.521525
 20
4.165274
 30
0.0
  0
SPLINE
  5
1ca
100
AcDbEntity
  8
Layer_1
 62
7
100
AcDbSpline
 70
8
 71
3
 72
8
 73
4
 74
0
 40
0
 40
0
 40
0
 40
0
 40
1
 40
1
 40
1
 40
1
 10
6.521525
 20
4.165274
 30
0.0
 10
6.518476
 20
4.162225
 30
0.0
 10
6.514340
 20
4.160513
 30
0.0
 10
6.510029
 20
4.160514
 30
0.0
  0
LWPOLYLINE
  5
1cb
100
AcDbEntity
  8
Layer_1
 62
7
100
AcDbPolyline
 90
2
 70
0
 10
6.460163
 20
4.193005
 30
0.0
 10
6.510029
 20
4.193005
 30
0.0
  0
LWPOLYLINE
  5
1cc
100
AcDbEntity
  8
Layer_1
 62
7
100
AcDbPolyline
 90
3
 70
0
 10
6.510029
 20
4.160514
 30
0.0
 10
6.460163
 20
4.160514
 30
0.0
 10
6.460163
 20
4.193005
 30
0.0
  0
SPLINE
  5
1cd
100
AcDbEntity
  8
Layer_1
 62
7
100
AcDbSpline
 70
8
 71
3
 72
8
 73
4
 74
0
 40
0
 40
0
 40
0
 40
0
 40
1
 40
1
 40
1
 40
1
 10
6.510029
 20
4.136141
 30
0.0
 10
6.514340
 20
4.136142
 30
0.0
 10
6.518476
 20
4.134429
 30
0.0
 10
6.521525
 20
4.131380
 30
0.0
  0
SPLINE
  5
1ce
100
AcDbEntity
  8
Layer_1
 62
7
100
AcDbSpline
 70
8
 71
3
 72
8
 73
4
 74
0
 40
0
 40
0
 40
0
 40
0
 40
1
 40
1
 40
1
 40
1
 10
6.521525
 20
4.131380
 30
0.0
 10
6.524573
 20
4.128332
 30
0.0
 10
6.526286
 20
4.124196
 30
0.0
 10
6.526285
 20
4.119885
 30
0.0
  0
SPLINE
  5
1cf
100
AcDbEntity
  8
Layer_1
 62
7
100
AcDbSpline
 70
8
 71
3
 72
8
 73
4
 74
0
 40
0
 40
0
 40
0
 40
0
 40
1
 40
1
 40
1
 40
1
 10
6.526285
 20
4.119885
 30
0.0
 10
6.526286
 20
4.115573
 30
0.0
 10
6.524573
 20
4.111438
 30
0.0
 10
6.521524
 20
4.108389
 30
0.0
  0
SPLINE
  5
1d0
100
AcDbEntity
  8
Layer_1
 62
7
100
AcDbSpline
 70
8
 71
3
 72
8
 73
4
 74
0
 40
0
 40
0
 40
0
 40
0
 40
1
 40
1
 40
1
 40
1
 10
6.521524
 20
4.108389
 30
0.0
 10
6.518476
 20
4.105340
 30
0.0
 10
6.514340
 20
4.103628
 30
0.0
 10
6.510029
 20
4.103629
 30
0.0
  0
LWPOLYLINE
  5
1d1
100
AcDbEntity
  8
Layer_1
 62
7
100
AcDbPolyline
 90
2
 70
0
 10
6.451822
 20
4.136141
 30
0.0
 10
6.510029
 20
4.136141
 30
0.0
  0
SPLINE
  5
1d2
100
AcDbEntity
  8
Layer_1
 62
7
100
AcDbSpline
 70
8
 71
3
 72
8
 73
4
 74
0
 40
0
 40
0
 40
0
 40
0
 40
1
 40
1
 40
1
 40
1
 10
6.458291
 20
4.103629
 30
0.0
 10
6.456751
 20
4.114580
 30
0.0
 10
6.454591
 20
4.125434
 30
0.0
 10
6.451822
 20
4.136141
 30
0.0
  0
LWPOLYLINE
  5
1d3
100
AcDbEntity
  8
Layer_1
 62
7
100
AcDbPolyline
 90
2
 70
0
 10
6.510029
 20
4.103629
 30
0.0
 10
6.458291
 20
4.103629
 30
0.0
  0
LWPOLYLINE
  5
1d4
100
AcDbEntity
  8
Layer_1
 62
7
100
AcDbPolyline
 90
1
 70
1
 10
6.451822
 20
4.136141
 30
0.0
  0
SPLINE
  5
1d5
100
AcDbEntity
  8
Layer_1
 62
7
100
AcDbSpline
 70
8
 71
3
 72
8
 73
4
 74
0
 40
0
 40
0
 40
0
 40
0
 40
1
 40
1
 40
1
 40
1
 10
6.510029
 20
4.079256
 30
0.0
 10
6.514340
 20
4.079257
 30
0.0
 10
6.518476
 20
4.077544
 30
0.0
 10
6.521524
 20
4.074496
 30
0.0
  0
SPLINE
  5
1d6
100
AcDbEntity
  8
Layer_1
 62
7
100
AcDbSpline
 70
8
 71
3
 72
8
 73
4
 74
0
 40
0
 40
0
 40
0
 40
0
 40
1
 40
1
 40
1
 40
1
 10
6.521524
 20
4.074496
 30
0.0
 10
6.524573
 20
4.071447
 30
0.0
 10
6.526286
 20
4.067312
 30
0.0
 10
6.526285
 20
4.063000
 30
0.0
  0
SPLINE
  5
1d7
100
AcDbEntity
  8
Layer_1
 62
7
100
AcDbSpline
 70
8
 71
3
 72
8
 73
4
 74
0
 40
0
 40
0
 40
0
 40
0
 40
1
 40
1
 40
1
 40
1
 10
6.526285
 20
4.063000
 30
0.0
 10
6.526286
 20
4.058688
 30
0.0
 10
6.524573
 20
4.054553
 30
0.0
 10
6.521524
 20
4.051504
 30
0.0
  0
SPLINE
  5
1d8
100
AcDbEntity
  8
Layer_1
 62
7
100
AcDbSpline
 70
8
 71
3
 72
8
 73
4
 74
0
 40
0
 40
0
 40
0
 40
0
 40
1
 40
1
 40
1
 40
1
 10
6.521524
 20
4.051504
 30
0.0
 10
6.518476
 20
4.048456
 30
0.0
 10
6.514340
 20
4.046743
 30
0.0
 10
6.510029
 20
4.046744
 30
0.0
  0
LWPOLYLINE
  5
1d9
100
AcDbEntity
  8
Layer_1
 62
7
100
AcDbPolyline
 90
2
 70
0
 10
6.460204
 20
4.079256
 30
0.0
 10
6.510029
 20
4.079256
 30
0.0
  0
SPLINE
  5
1da
100
AcDbEntity
  8
Layer_1
 62
7
100
AcDbSpline
 70
8
 71
3
 72
8
 73
4
 74
0
 40
0
 40
0
 40
0
 40
0
 40
1
 40
1
 40
1
 40
1
 10
6.460204
 20
4.046744
 30
0.0
 10
6.460714
 20
4.052152
 30
0.0
 10
6.461074
 20
4.057573
 30
0.0
 10
6.461283
 20
4.063000
 30
0.0
  0
SPLINE
  5
1db
100
AcDbEntity
  8
Layer_1
 62
7
100
AcDbSpline
 70
8
 71
3
 72
8
 73
4
 74
0
 40
0
 40
0
 40
0
 40
0
 40
1
 40
1
 40
1
 40
1
 10
6.461283
 20
4.063000
 30
0.0
 10
6.461074
 20
4.068427
 30
0.0
 10
6.460714
 20
4.073848
 30
0.0
 10
6.460204
 20
4.079256
 30
0.0
  0
LWPOLYLINE
  5
1dc
100
AcDbEntity
  8
Layer_1
 62
7
100
AcDbPolyline
 90
2
 70
0
 10
6.510029
 20
4.046744
 30
0.0
 10
6.460204
 20
4.046744
 30
0.0
  0
LWPOLYLINE
  5
1dd
100
AcDbEntity
  8
Layer_1
 62
7
100
AcDbPolyline
 90
1
 70
1
 10
6.460204
 20
4.079256
 30
0.0
  0
SPLINE
  5
1de
100
AcDbEntity
  8
Layer_1
 62
7
100
AcDbSpline
 70
8
 71
3
 72
8
 73
4
 74
0
 40
0
 40
0
 40
0
 40
0
 40
1
 40
1
 40
1
 40
1
 10
6.510028
 20
4.022371
 30
0.0
 10
6.514340
 20
4.022372
 30
0.0
 10
6.518475
 20
4.020660
 30
0.0
 10
6.521524
 20
4.017611
 30
0.0
  0
SPLINE
  5
1df
100
AcDbEntity
  8
Layer_1
 62
7
100
AcDbSpline
 70
8
 71
3
 72
8
 73
4
 74
0
 40
0
 40
0
 40
0
 40
0
 40
1
 40
1
 40
1
 40
1
 10
6.521524
 20
4.017611
 30
0.0
 10
6.524572
 20
4.014562
 30
0.0
 10
6.526285
 20
4.010427
 30
0.0
 10
6.526284
 20
4.006115
 30
0.0
  0
SPLINE
  5
1e0
100
AcDbEntity
  8
Layer_1
 62
7
100
AcDbSpline
 70
8
 71
3
 72
8
 73
4
 74
0
 40
0
 40
0
 40
0
 40
0
 40
1
 40
1
 40
1
 40
1
 10
6.526284
 20
4.006115
 30
0.0
 10
6.526285
 20
4.001804
 30
0.0
 10
6.524573
 20
3.997668
 30
0.0
 10
6.521524
 20
3.994620
 30
0.0
  0
SPLINE
  5
1e1
100
AcDbEntity
  8
Layer_1
 62
7
100
AcDbSpline
 70
8
 71
3
 72
8
 73
4
 74
0
 40
0
 40
0
 40
0
 40
0
 40
1
 40
1
 40
1
 40
1
 10
6.521524
 20
3.994620
 30
0.0
 10
6.518475
 20
3.991571
 30
0.0
 10
6.514340
 20
3.989858
 30
0.0
 10
6.510028
 20
3.989859
 30
0.0
  0
LWPOLYLINE
  5
1e2
100
AcDbEntity
  8
Layer_1
 62
7
100
AcDbPolyline
 90
2
 70
0
 10
6.458291
 20
4.022371
 30
0.0
 10
6.510028
 20
4.022371
 30
0.0
  0
SPLINE
  5
1e3
100
AcDbEntity
  8
Layer_1
 62
7
100
AcDbSpline
 70
8
 71
3
 72
8
 73
4
 74
0
 40
0
 40
0
 40
0
 40
0
 40
1
 40
1
 40
1
 40
1
 10
6.451821
 20
3.989859
 30
0.0
 10
6.454590
 20
4.000566
 30
0.0
 10
6.456750
 20
4.011420
 30
0.0
 10
6.458291
 20
4.022371
 30
0.0
  0
LWPOLYLINE
  5
1e4
100
AcDbEntity
  8
Layer_1
 62
7
100
AcDbPolyline
 90
2
 70
0
 10
6.510028
 20
3.989859
 30
0.0
 10
6.451821
 20
3.989859
 30
0.0
  0
LWPOLYLINE
  5
1e5
100
AcDbEntity
  8
Layer_1
 62
7
100
AcDbPolyline
 90
1
 70
1
 10
6.458291
 20
4.022371
 30
0.0
  0
SPLINE
  5
1e6
100
AcDbEntity
  8
Layer_1
 62
7
100
AcDbSpline
 70
8
 71
3
 72
8
 73
4
 74
0
 40
0
 40
0
 40
0
 40
0
 40
1
 40
1
 40
1
 40
1
 10
6.510028
 20
3.965486
 30
0.0
 10
6.514340
 20
3.965487
 30
0.0
 10
6.518475
 20
3.963775
 30
0.0
 10
6.521524
 20
3.960726
 30
0.0
  0
SPLINE
  5
1e7
100
AcDbEntity
  8
Layer_1
 62
7
100
AcDbSpline
 70
8
 71
3
 72
8
 73
4
 74
0
 40
0
 40
0
 40
0
 40
0
 40
1
 40
1
 40
1
 40
1
 10
6.521524
 20
3.960726
 30
0.0
 10
6.524573
 20
3.957677
 30
0.0
 10
6.526285
 20
3.953542
 30
0.0
 10
6.526284
 20
3.949230
 30
0.0
  0
SPLINE
  5
1e8
100
AcDbEntity
  8
Layer_1
 62
7
100
AcDbSpline
 70
8
 71
3
 72
8
 73
4
 74
0
 40
0
 40
0
 40
0
 40
0
 40
1
 40
1
 40
1
 40
1
 10
6.526284
 20
3.949230
 30
0.0
 10
6.526275
 20
3.940260
 30
0.0
 10
6.518999
 20
3.932993
 30
0.0
 10
6.510028
 20
3.932995
 30
0.0
  0
LWPOLYLINE
  5
1e9
100
AcDbEntity
  8
Layer_1
 62
7
100
AcDbPolyline
 90
2
 70
0
 10
6.443907
 20
3.965486
 30
0.0
 10
6.510028
 20
3.965486
 30
0.0
  0
SPLINE
  5
1ea
100
AcDbEntity
  8
Layer_1
 62
7
100
AcDbSpline
 70
8
 71
3
 72
8
 73
4
 74
0
 40
0
 40
0
 40
0
 40
0
 40
1
 40
1
 40
1
 40
1
 10
6.430093
 20
3.932995
 30
0.0
 10
6.435347
 20
3.943538
 30
0.0
 10
6.439960
 20
3.954388
 30
0.0
 10
6.443907
 20
3.965486
 30
0.0
  0
LWPOLYLINE
  5
1eb
100
AcDbEntity
  8
Layer_1
 62
7
100
AcDbPolyline
 90
2
 70
0
 10
6.510028
 20
3.932995
 30
0.0
 10
6.430093
 20
3.932995
 30
0.0
  0
LWPOLYLINE
  5
1ec
100
AcDbEntity
  8
Layer_1
 62
7
100
AcDbPolyline
 90
1
 70
1
 10
6.443907
 20
3.965486
 30
0.0
  0
SPLINE
  5
1ed
100
AcDbEntity
  8
Layer_1
 62
7
100
AcDbSpline
 70
8
 71
3
 72
8
 73
4
 74
0
 40
0
 40
0
 40
0
 40
0
 40
1
 40
1
 40
1
 40
1
 10
6.510028
 20
3.802970
 30
0.0
 10
6.514340
 20
3.802971
 30
0.0
 10
6.518475
 20
3.801259
 30
0.0
 10
6.521524
 20
3.798210
 30
0.0
  0
SPLINE
  5
1ee
100
AcDbEntity
  8
Layer_1
 62
7
100
AcDbSpline
 70
8
 71
3
 72
8
 73
4
 74
0
 40
0
 40
0
 40
0
 40
0
 40
1
 40
1
 40
1
 40
1
 10
6.521524
 20
3.798210
 30
0.0
 10
6.524573
 20
3.795161
 30
0.0
 10
6.526285
 20
3.791026
 30
0.0
 10
6.526284
 20
3.786714
 30
0.0
  0
SPLINE
  5
1ef
100
AcDbEntity
  8
Layer_1
 62
7
100
AcDbSpline
 70
8
 71
3
 72
8
 73
4
 74
0
 40
0
 40
0
 40
0
 40
0
 40
1
 40
1
 40
1
 40
1
 10
6.526284
 20
3.786714
 30
0.0
 10
6.526285
 20
3.782403
 30
0.0
 10
6.524572
 20
3.778267
 30
0.0
 10
6.521524
 20
3.775219
 30
0.0
  0
SPLINE
  5
1f0
100
AcDbEntity
  8
Layer_1
 62
7
100
AcDbSpline
 70
8
 71
3
 72
8
 73
4
 74
0
 40
0
 40
0
 40
0
 40
0
 40
1
 40
1
 40
1
 40
1
 10
6.521524
 20
3.775219
 30
0.0
 10
6.518475
 20
3.772170
 30
0.0
 10
6.514340
 20
3.770458
 30
0.0
 10
6.510028
 20
3.770459
 30
0.0
  0
LWPOLYLINE
  5
1f1
100
AcDbEntity
  8
Layer_1
 62
7
100
AcDbPolyline
 90
2
 70
0
 10
6.430093
 20
3.802970
 30
0.0
 10
6.510028
 20
3.802970
 30
0.0
  0
SPLINE
  5
1f2
100
AcDbEntity
  8
Layer_1
 62
7
100
AcDbSpline
 70
8
 71
3
 72
8
 73
4
 74
0
 40
0
 40
0
 40
0
 40
0
 40
1
 40
1
 40
1
 40
1
 10
6.443907
 20
3.770459
 30
0.0
 10
6.439961
 20
3.781564
 30
0.0
 10
6.435348
 20
3.792421
 30
0.0
 10
6.430093
 20
3.802970
 30
0.0
  0
LWPOLYLINE
  5
1f3
100
AcDbEntity
  8
Layer_1
 62
7
100
AcDbPolyline
 90
2
 70
0
 10
6.510028
 20
3.770459
 30
0.0
 10
6.443907
 20
3.770459
 30
0.0
  0
LWPOLYLINE
  5
1f4
100
AcDbEntity
  8
Layer_1
 62
7
100
AcDbPolyline
 90
1
 70
1
 10
6.430093
 20
3.802970
 30
0.0
  0
SPLINE
  5
1f5
100
AcDbEntity
  8
Layer_1
 62
7
100
AcDbSpline
 70
8
 71
3
 72
8
 73
4
 74
0
 40
0
 40
0
 40
0
 40
0
 40
1
 40
1
 40
1
 40
1
 10
6.510028
 20
3.746085
 30
0.0
 10
6.514340
 20
3.746086
 30
0.0
 10
6.518475
 20
3.744374
 30
0.0
 10
6.521524
 20
3.741325
 30
0.0
  0
SPLINE
  5
1f6
100
AcDbEntity
  8
Layer_1
 62
7
100
AcDbSpline
 70
8
 71
3
 72
8
 73
4
 74
0
 40
0
 40
0
 40
0
 40
0
 40
1
 40
1
 40
1
 40
1
 10
6.521524
 20
3.741325
 30
0.0
 10
6.524572
 20
3.738276
 30
0.0
 10
6.526285
 20
3.734141
 30
0.0
 10
6.526284
 20
3.729830
 30
0.0
  0
SPLINE
  5
1f7
100
AcDbEntity
  8
Layer_1
 62
7
100
AcDbSpline
 70
8
 71
3
 72
8
 73
4
 74
0
 40
0
 40
0
 40
0
 40
0
 40
1
 40
1
 40
1
 40
1
 10
6.526284
 20
3.729830
 30
0.0
 10
6.526275
 20
3.720859
 30
0.0
 10
6.518999
 20
3.713592
 30
0.0
 10
6.510028
 20
3.713594
 30
0.0
  0
LWPOLYLINE
  5
1f8
100
AcDbEntity
  8
Layer_1
 62
7
100
AcDbPolyline
 90
2
 70
0
 10
6.451821
 20
3.746085
 30
0.0
 10
6.510028
 20
3.746085
 30
0.0
  0
SPLINE
  5
1f9
100
AcDbEntity
  8
Layer_1
 62
7
100
AcDbSpline
 70
8
 71
3
 72
8
 73
4
 74
0
 40
0
 40
0
 40
0
 40
0
 40
1
 40
1
 40
1
 40
1
 10
6.458291
 20
3.713594
 30
0.0
 10
6.456749
 20
3.724538
 30
0.0
 10
6.454589
 20
3.735386
 30
0.0
 10
6.451821
 20
3.746085
 30
0.0
  0
LWPOLYLINE
  5
1fa
100
AcDbEntity
  8
Layer_1
 62
7
100
AcDbPolyline
 90
2
 70
0
 10
6.510028
 20
3.713594
 30
0.0
 10
6.458291
 20
3.713594
 30
0.0
  0
LWPOLYLINE
  5
1fb
100
AcDbEntity
  8
Layer_1
 62
7
100
AcDbPolyline
 90
1
 70
1
 10
6.451821
 20
3.746085
 30
0.0
  0
SPLINE
  5
1fc
100
AcDbEntity
  8
Layer_1
 62
7
100
AcDbSpline
 70
8
 71
3
 72
8
 73
4
 74
0
 40
0
 40
0
 40
0
 40
0
 40
1
 40
1
 40
1
 40
1
 10
6.510028
 20
3.689200
 30
0.0
 10
6.518999
 20
3.689203
 30
0.0
 10
6.526275
 20
3.681936
 30
0.0
 10
6.526284
 20
3.672965
 30
0.0
  0
SPLINE
  5
1fd
100
AcDbEntity
  8
Layer_1
 62
7
100
AcDbSpline
 70
8
 71
3
 72
8
 73
4
 74
0
 40
0
 40
0
 40
0
 40
0
 40
1
 40
1
 40
1
 40
1
 10
6.526284
 20
3.672965
 30
0.0
 10
6.526285
 20
3.668653
 30
0.0
 10
6.524572
 20
3.664518
 30
0.0
 10
6.521524
 20
3.661469
 30
0.0
  0
SPLINE
  5
1fe
100
AcDbEntity
  8
Layer_1
 62
7
100
AcDbSpline
 70
8
 71
3
 72
8
 73
4
 74
0
 40
0
 40
0
 40
0
 40
0
 40
1
 40
1
 40
1
 40
1
 10
6.521524
 20
3.661469
 30
0.0
 10
6.518475
 20
3.658421
 30
0.0
 10
6.514340
 20
3.656708
 30
0.0
 10
6.510028
 20
3.656709
 30
0.0
  0
LWPOLYLINE
  5
1ff
100
AcDbEntity
  8
Layer_1
 62
7
100
AcDbPolyline
 90
2
 70
0
 10
6.460203
 20
3.689200
 30
0.0
 10
6.510028
 20
3.689200
 30
0.0
  0
SPLINE
  5
200
100
AcDbEntity
  8
Layer_1
 62
7
100
AcDbSpline
 70
8
 71
3
 72
8
 73
4
 74
0
 40
0
 40
0
 40
0
 40
0
 40
1
 40
1
 40
1
 40
1
 10
6.460203
 20
3.656709
 30
0.0
 10
6.460714
 20
3.662117
 30
0.0
 10
6.461073
 20
3.667537
 30
0.0
 10
6.461282
 20
3.672965
 30
0.0
  0
SPLINE
  5
201
100
AcDbEntity
  8
Layer_1
 62
7
100
AcDbSpline
 70
8
 71
3
 72
8
 73
4
 74
0
 40
0
 40
0
 40
0
 40
0
 40
1
 40
1
 40
1
 40
1
 10
6.461282
 20
3.672965
 30
0.0
 10
6.461073
 20
3.678386
 30
0.0
 10
6.460713
 20
3.683800
 30
0.0
 10
6.460203
 20
3.689200
 30
0.0
  0
LWPOLYLINE
  5
202
100
AcDbEntity
  8
Layer_1
 62
7
100
AcDbPolyline
 90
2
 70
0
 10
6.510028
 20
3.656709
 30
0.0
 10
6.460203
 20
3.656709
 30
0.0
  0
LWPOLYLINE
  5
203
100
AcDbEntity
  8
Layer_1
 62
7
100
AcDbPolyline
 90
1
 70
1
 10
6.460203
 20
3.689200
 30
0.0
  0
SPLINE
  5
204
100
AcDbEntity
  8
Layer_1
 62
7
100
AcDbSpline
 70
8
 71
3
 72
8
 73
4
 74
0
 40
0
 40
0
 40
0
 40
0
 40
1
 40
1
 40
1
 40
1
 10
6.510027
 20
3.632336
 30
0.0
 10
6.514339
 20
3.632337
 30
0.0
 10
6.518474
 20
3.630625
 30
0.0
 10
6.521523
 20
3.627576
 30
0.0
  0
SPLINE
  5
205
100
AcDbEntity
  8
Layer_1
 62
7
100
AcDbSpline
 70
8
 71
3
 72
8
 73
4
 74
0
 40
0
 40
0
 40
0
 40
0
 40
1
 40
1
 40
1
 40
1
 10
6.521523
 20
3.627576
 30
0.0
 10
6.524572
 20
3.624527
 30
0.0
 10
6.526284
 20
3.620392
 30
0.0
 10
6.526283
 20
3.616080
 30
0.0
  0
SPLINE
  5
206
100
AcDbEntity
  8
Layer_1
 62
7
100
AcDbSpline
 70
8
 71
3
 72
8
 73
4
 74
0
 40
0
 40
0
 40
0
 40
0
 40
1
 40
1
 40
1
 40
1
 10
6.526283
 20
3.616080
 30
0.0
 10
6.526284
 20
3.611769
 30
0.0
 10
6.524572
 20
3.607633
 30
0.0
 10
6.521523
 20
3.604584
 30
0.0
  0
SPLINE
  5
207
100
AcDbEntity
  8
Layer_1
 62
7
100
AcDbSpline
 70
8
 71
3
 72
8
 73
4
 74
0
 40
0
 40
0
 40
0
 40
0
 40
1
 40
1
 40
1
 40
1
 10
6.521523
 20
3.604584
 30
0.0
 10
6.518474
 20
3.601536
 30
0.0
 10
6.514339
 20
3.599823
 30
0.0
 10
6.510027
 20
3.599824
 30
0.0
  0
LWPOLYLINE
  5
208
100
AcDbEntity
  8
Layer_1
 62
7
100
AcDbPolyline
 90
2
 70
0
 10
6.458290
 20
3.632336
 30
0.0
 10
6.510027
 20
3.632336
 30
0.0
  0
SPLINE
  5
209
100
AcDbEntity
  8
Layer_1
 62
7
100
AcDbSpline
 70
8
 71
3
 72
8
 73
4
 74
0
 40
0
 40
0
 40
0
 40
0
 40
1
 40
1
 40
1
 40
1
 10
6.451820
 20
3.599824
 30
0.0
 10
6.454589
 20
3.610531
 30
0.0
 10
6.456749
 20
3.621385
 30
0.0
 10
6.458290
 20
3.632336
 30
0.0
  0
LWPOLYLINE
  5
20a
100
AcDbEntity
  8
Layer_1
 62
7
100
AcDbPolyline
 90
2
 70
0
 10
6.510027
 20
3.599824
 30
0.0
 10
6.451820
 20
3.599824
 30
0.0
  0
LWPOLYLINE
  5
20b
100
AcDbEntity
  8
Layer_1
 62
7
100
AcDbPolyline
 90
1
 70
1
 10
6.458290
 20
3.632336
 30
0.0
  0
SPLINE
  5
20c
100
AcDbEntity
  8
Layer_1
 62
7
100
AcDbSpline
 70
8
 71
3
 72
8
 73
4
 74
0
 40
0
 40
0
 40
0
 40
0
 40
1
 40
1
 40
1
 40
1
 10
6.510027
 20
3.575451
 30
0.0
 10
6.514339
 20
3.575452
 30
0.0
 10
6.518474
 20
3.573740
 30
0.0
 10
6.521523
 20
3.570691
 30
0.0
  0
SPLINE
  5
20d
100
AcDbEntity
  8
Layer_1
 62
7
100
AcDbSpline
 70
8
 71
3
 72
8
 73
4
 74
0
 40
0
 40
0
 40
0
 40
0
 40
1
 40
1
 40
1
 40
1
 10
6.521523
 20
3.570691
 30
0.0
 10
6.524572
 20
3.567643
 30
0.0
 10
6.526284
 20
3.563507
 30
0.0
 10
6.526283
 20
3.559196
 30
0.0
  0
SPLINE
  5
20e
100
AcDbEntity
  8
Layer_1
 62
7
100
AcDbSpline
 70
8
 71
3
 72
8
 73
4
 74
0
 40
0
 40
0
 40
0
 40
0
 40
1
 40
1
 40
1
 40
1
 10
6.526283
 20
3.559196
 30
0.0
 10
6.526284
 20
3.554884
 30
0.0
 10
6.524572
 20
3.550749
 30
0.0
 10
6.521523
 20
3.547700
 30
0.0
  0
SPLINE
  5
20f
100
AcDbEntity
  8
Layer_1
 62
7
100
AcDbSpline
 70
8
 71
3
 72
8
 73
4
 74
0
 40
0
 40
0
 40
0
 40
0
 40
1
 40
1
 40
1
 40
1
 10
6.521523
 20
3.547700
 30
0.0
 10
6.518474
 20
3.544651
 30
0.0
 10
6.514339
 20
3.542939
 30
0.0
 10
6.510027
 20
3.542940
 30
0.0
  0
LWPOLYLINE
  5
210
100
AcDbEntity
  8
Layer_1
 62
7
100
AcDbPolyline
 90
2
 70
0
 10
6.443906
 20
3.575451
 30
0.0
 10
6.510027
 20
3.575451
 30
0.0
  0
SPLINE
  5
211
100
AcDbEntity
  8
Layer_1
 62
7
100
AcDbSpline
 70
8
 71
3
 72
8
 73
4
 74
0
 40
0
 40
0
 40
0
 40
0
 40
1
 40
1
 40
1
 40
1
 10
6.430092
 20
3.542940
 30
0.0
 10
6.435347
 20
3.553489
 30
0.0
 10
6.439960
 20
3.564346
 30
0.0
 10
6.443906
 20
3.575451
 30
0.0
  0
LWPOLYLINE
  5
212
100
AcDbEntity
  8
Layer_1
 62
7
100
AcDbPolyline
 90
2
 70
0
 10
6.510027
 20
3.542940
 30
0.0
 10
6.430092
 20
3.542940
 30
0.0
  0
LWPOLYLINE
  5
213
100
AcDbEntity
  8
Layer_1
 62
7
100
AcDbPolyline
 90
1
 70
1
 10
6.443906
 20
3.575451
 30
0.0
  0
ENDSEC
  0
SECTION
  2
OBJECTS
  0
DICTIONARY
  5
C
330
0
100
AcDbDictionary
  3
ACAD_GROUP
350
D
  3
ACAD_MLINESTYLE
350
17
  0
DICTIONARY
  5
D
330
C
100
AcDbDictionary
  0
DICTIONARY
  5
1A
330
C
100
AcDbDictionary
  0
DICTIONARY
  5
17
330
C
100
AcDbDictionary
  3
STANDARD
350
18
  0
DICTIONARY
  5
19
330
C
100
AcDbDictionary
  0
ENDSEC
  0
EOF
