  0
SECTION
  2
HEADER
  9
$ACADVER
  1
AC1014
  9
$HANDSEED
  5
FFFF
  9
$INSUNITS
 70
     1
  9
$MEASUREMENT
 70
     1
  0
ENDSEC
  0
SECTION
  2
TABLES
  0
TABLE
  2
VPORT
  5
8
330
0
100
AcDbSymbolTable
 70
     4
  0
VPORT
  5
2E
330
8
100
AcDbSymbolTableRecord
100
AcDbViewportTableRecord
  2
*ACTIVE
 70
     0
 10
0.0
 20
0.0
 11
1.0
 21
1.0
 12
210.0
 22
148.5
 13
0.0
 23
0.0
 14
10.0
 24
10.0
 15
10.0
 25
10.0
 16
0.0
 26
0.0
 36
1.0
 17
0.0
 27
0.0
 37
0.0
 40
341.0
 41
1.24
 42
50.0
 43
0.0
 44
0.0
 50
0.0
 51
0.0
 71
     0
 72
   100
 73
     1
 74
     3
 75
     0
 76
     0
 77
     0
 78
     0
  0
ENDTAB
  0
TABLE
  2
LTYPE
  5
5
330
0
100
AcDbSymbolTable
 70
     1
  0
LTYPE
  5
14
330
5
100
AcDbSymbolTableRecord
100
AcDbLinetypeTableRecord
  2
BYBLOCK
 70
     0
  3

 72
    65
 73
     0
 40
0.0
  0
LTYPE
  5
15
330
5
100
AcDbSymbolTableRecord
100
AcDbLinetypeTableRecord
  2
BYLAYER
 70
     0
  3

 72
    65
 73
     0
 40
0.0
  0
LTYPE
  5
16
330
5
100
AcDbSymbolTableRecord
100
AcDbLinetypeTableRecord
  2
CONTINUOUS
 70
     0
  3
Solid line
 72
    65
 73
     0
 40
0.0
  0
ENDTAB
  0
TABLE
  2
LAYER
  5
2
100
AcDbSymbolTable
 70
2
  0
LAYER
  5
50
100
AcDbSymbolTableRecord
100
AcDbLayerTableRecord
  2
0
 70
0
  6
CONTINUOUS
  0
LAYER
  5
51
100
AcDbSymbolTableRecord
100
AcDbLayerTableRecord
  2
Layer_1
 70
0
  6
CONTINUOUS
  0
ENDTAB
  0
TABLE
  2
STYLE
  5
3
330
0
100
AcDbSymbolTable
 70
     1
  0
STYLE
  5
11
330
3
100
AcDbSymbolTableRecord
100
AcDbTextStyleTableRecord
  2
STANDARD
 70
     0
 40
0.0
 41
1.0
 50
0.0
 71
     0
 42
2.5
  3
txt
  4

  0
ENDTAB
  0
TABLE
  2
VIEW
  5
6
330
0
100
AcDbSymbolTable
 70
     0
  0
ENDTAB
  0
TABLE
  2
UCS
  5
7
330
0
100
AcDbSymbolTable
 70
     0
  0
ENDTAB
  0
TABLE
  2
APPID
  5
9
330
0
100
AcDbSymbolTable
 70
     2
  0
APPID
  5
12
330
9
100
AcDbSymbolTableRecord
100
AcDbRegAppTableRecord
  2
ACAD
 70
     0
  0
ENDTAB
  0
TABLE
  2
DIMSTYLE
  5
A
330
0
100
AcDbSymbolTable
 70
     1
  0
DIMSTYLE
105
27
330
A
100
AcDbSymbolTableRecord
100
AcDbDimStyleTableRecord
  2
ISO-25
 70
     0
  3

  4

  5

  6

  7

 40
1.0
 41
2.5
 42
0.625
 43
3.75
 44
1.25
 45
0.0
 46
0.0
 47
0.0
 48
0.0
140
2.5
141
2.5
142
0.0
143
0.03937007874016
144
1.0
145
0.0
146
1.0
147
0.625
 71
     0
 72
     0
 73
     0
 74
     0
 75
     0
 76
     0
 77
     1
 78
     8
170
     0
171
     3
172
     1
173
     0
174
     0
175
     0
176
     0
177
     0
178
     0
270
     2
271
     2
272
     2
273
     2
274
     3
340
11
275
     0
280
     0
281
     0
282
     0
283
     0
284
     8
285
     0
286
     0
287
     3
288
     0
  0
ENDTAB
  0
TABLE
  2
BLOCK_RECORD
  5
1
330
0
100
AcDbSymbolTable
 70
     1
  0
BLOCK_RECORD
  5
1F
330
1
100
AcDbSymbolTableRecord
100
AcDbBlockTableRecord
  2
*MODEL_SPACE
  0
BLOCK_RECORD
  5
1B
330
1
100
AcDbSymbolTableRecord
100
AcDbBlockTableRecord
  2
*PAPER_SPACE
  0
ENDTAB
  0
ENDSEC
  0
SECTION
  2
BLOCKS
  0
BLOCK
  5
20
330
1F
100
AcDbEntity
  8
0
100
AcDbBlockBegin
  2
*MODEL_SPACE
 70
     0
 10
0.0
 20
0.0
 30
0.0
  3
*MODEL_SPACE
  1

  0
ENDBLK
  5
21
330
1F
100
AcDbEntity
  8
0
100
AcDbBlockEnd
  0
BLOCK
  5
1C
330
1B
100
AcDbEntity
 67
     1
  8
0
100
AcDbBlockBegin
  2
*PAPER_SPACE
  1

  0
ENDBLK
  5
1D
330
1B
100
AcDbEntity
 67
     1
  8
0
100
AcDbBlockEnd
  0
ENDSEC
  0
SECTION
  2
ENTITIES
  0
LWPOLYLINE
  5
100
100
AcDbEntity
  8
Layer_1
 62
7
100
AcDbPolyline
 90
22
 70
1
 10
5.749986
 20
6.999991
 30
0.0
 10
5.749986
 20
7.249991
 30
0.0
 10
5.999986
 20
7.249991
 30
0.0
 10
5.999986
 20
7.499991
 30
0.0
 10
5.749986
 20
7.499991
 30
0.0
 10
5.749986
 20
7.749991
 30
0.0
 10
-0.000015
 20
7.749991
 30
0.0
 10
-0.000015
 20
7.499991
 30
0.0
 10
0.249985
 20
7.499991
 30
0.0
 10
0.249985
 20
7.249991
 30
0.0
 10
-0.000015
 20
7.249991
 30
0.0
 10
-0.000015
 20
6.999991
 30
0.0
 10
1.249985
 20
6.999991
 30
0.0
 10
1.249985
 20
7.249991
 30
0.0
 10
2.249985
 20
7.249991
 30
0.0
 10
2.249985
 20
6.999991
 30
0.0
 10
2.749986
 20
6.999991
 30
0.0
 10
3.249986
 20
6.999991
 30
0.0
 10
3.749986
 20
6.999991
 30
0.0
 10
3.749986
 20
7.249991
 30
0.0
 10
4.749986
 20
7.249991
 30
0.0
 10
4.749986
 20
6.999991
 30
0.0
  0
LWPOLYLINE
  5
101
100
AcDbEntity
  8
Layer_1
 62
7
100
AcDbPolyline
 90
12
 70
1
 10
0.000000
 20
11.500000
 30
0.0
 10
0.000000
 20
11.250000
 30
0.0
 10
0.250000
 20
11.250000
 30
0.0
 10
0.250000
 20
11.000000
 30
0.0
 10
0.000000
 20
11.000000
 30
0.0
 10
0.000000
 20
8.750000
 30
0.0
 10
6.000001
 20
8.750000
 30
0.0
 10
6.000001
 20
11.000000
 30
0.0
 10
5.750000
 20
11.000000
 30
0.0
 10
5.750000
 20
11.250000
 30
0.0
 10
6.000001
 20
11.250000
 30
0.0
 10
6.000001
 20
11.500000
 30
0.0
  0
LWPOLYLINE
  5
102
100
AcDbEntity
  8
Layer_1
 62
7
100
AcDbPolyline
 90
4
 70
1
 10
5.250000
 20
11.000000
 30
0.0
 10
4.500000
 20
11.000000
 30
0.0
 10
4.500000
 20
10.750000
 30
0.0
 10
5.250000
 20
10.750000
 30
0.0
  0
LWPOLYLINE
  5
103
100
AcDbEntity
  8
Layer_1
 62
7
100
AcDbPolyline
 90
4
 70
1
 10
0.750000
 20
11.000000
 30
0.0
 10
1.500000
 20
11.000000
 30
0.0
 10
1.500000
 20
10.750000
 30
0.0
 10
0.750000
 20
10.750000
 30
0.0
  0
SPLINE
  5
104
100
AcDbEntity
  8
Layer_1
 62
7
100
AcDbSpline
 70
8
 71
3
 72
8
 73
4
 74
0
 40
0
 40
0
 40
0
 40
0
 40
1
 40
1
 40
1
 40
1
 10
2.256510
 20
10.743490
 30
0.0
 10
2.118010
 20
10.743490
 30
0.0
 10
2.006510
 20
10.854990
 30
0.0
 10
2.006510
 20
10.993490
 30
0.0
  0
SPLINE
  5
105
100
AcDbEntity
  8
Layer_1
 62
7
100
AcDbSpline
 70
8
 71
3
 72
8
 73
4
 74
0
 40
0
 40
0
 40
0
 40
0
 40
1
 40
1
 40
1
 40
1
 10
2.006510
 20
10.993490
 30
0.0
 10
2.006510
 20
11.131990
 30
0.0
 10
2.118010
 20
11.243490
 30
0.0
 10
2.256510
 20
11.243490
 30
0.0
  0
LWPOLYLINE
  5
106
100
AcDbEntity
  8
Layer_1
 62
7
100
AcDbPolyline
 90
2
 70
0
 10
3.756510
 20
10.743490
 30
0.0
 10
2.256510
 20
10.743490
 30
0.0
  0
SPLINE
  5
107
100
AcDbEntity
  8
Layer_1
 62
7
100
AcDbSpline
 70
8
 71
3
 72
8
 73
4
 74
0
 40
0
 40
0
 40
0
 40
0
 40
1
 40
1
 40
1
 40
1
 10
3.756510
 20
11.243490
 30
0.0
 10
3.895010
 20
11.243490
 30
0.0
 10
4.006510
 20
11.131990
 30
0.0
 10
4.006510
 20
10.993490
 30
0.0
  0
SPLINE
  5
108
100
AcDbEntity
  8
Layer_1
 62
7
100
AcDbSpline
 70
8
 71
3
 72
8
 73
4
 74
0
 40
0
 40
0
 40
0
 40
0
 40
1
 40
1
 40
1
 40
1
 10
4.006510
 20
10.993490
 30
0.0
 10
4.006510
 20
10.854990
 30
0.0
 10
3.895010
 20
10.743490
 30
0.0
 10
3.756510
 20
10.743490
 30
0.0
  0
LWPOLYLINE
  5
109
100
AcDbEntity
  8
Layer_1
 62
7
100
AcDbPolyline
 90
2
 70
0
 10
2.256510
 20
11.243490
 30
0.0
 10
3.756510
 20
11.243490
 30
0.0
  0
LWPOLYLINE
  5
10a
100
AcDbEntity
  8
Layer_1
 62
7
100
AcDbPolyline
 90
1
 70
1
 10
3.756510
 20
10.743490
 30
0.0
  0
SPLINE
  5
10b
100
AcDbEntity
  8
Layer_1
 62
7
100
AcDbSpline
 70
8
 71
3
 72
8
 73
4
 74
0
 40
0
 40
0
 40
0
 40
0
 40
1
 40
1
 40
1
 40
1
 10
1.430000
 20
2.125000
 30
0.0
 10
1.382261
 20
2.125000
 30
0.0
 10
1.336477
 20
2.143964
 30
0.0
 10
1.302721
 20
2.177721
 30
0.0
  0
SPLINE
  5
10c
100
AcDbEntity
  8
Layer_1
 62
7
100
AcDbSpline
 70
8
 71
3
 72
8
 73
4
 74
0
 40
0
 40
0
 40
0
 40
0
 40
1
 40
1
 40
1
 40
1
 10
1.302721
 20
2.177721
 30
0.0
 10
1.268964
 20
2.211477
 30
0.0
 10
1.250000
 20
2.257261
 30
0.0
 10
1.250000
 20
2.305000
 30
0.0
  0
SPLINE
  5
10d
100
AcDbEntity
  8
Layer_1
 62
7
100
AcDbSpline
 70
8
 71
3
 72
8
 73
4
 74
0
 40
0
 40
0
 40
0
 40
0
 40
1
 40
1
 40
1
 40
1
 10
1.250000
 20
2.305000
 30
0.0
 10
1.250000
 20
2.352739
 30
0.0
 10
1.268964
 20
2.398523
 30
0.0
 10
1.302721
 20
2.432279
 30
0.0
  0
SPLINE
  5
10e
100
AcDbEntity
  8
Layer_1
 62
7
100
AcDbSpline
 70
8
 71
3
 72
8
 73
4
 74
0
 40
0
 40
0
 40
0
 40
0
 40
1
 40
1
 40
1
 40
1
 10
1.302721
 20
2.432279
 30
0.0
 10
1.336477
 20
2.466036
 30
0.0
 10
1.382261
 20
2.485000
 30
0.0
 10
1.430000
 20
2.485000
 30
0.0
  0
SPLINE
  5
10f
100
AcDbEntity
  8
Layer_1
 62
7
100
AcDbSpline
 70
8
 71
3
 72
8
 73
4
 74
0
 40
0
 40
0
 40
0
 40
0
 40
1
 40
1
 40
1
 40
1
 10
1.430000
 20
2.485000
 30
0.0
 10
1.477739
 20
2.485000
 30
0.0
 10
1.523523
 20
2.466036
 30
0.0
 10
1.557279
 20
2.432279
 30
0.0
  0
SPLINE
  5
110
100
AcDbEntity
  8
Layer_1
 62
7
100
AcDbSpline
 70
8
 71
3
 72
8
 73
4
 74
0
 40
0
 40
0
 40
0
 40
0
 40
1
 40
1
 40
1
 40
1
 10
1.557279
 20
2.432279
 30
0.0
 10
1.591036
 20
2.398523
 30
0.0
 10
1.610000
 20
2.352739
 30
0.0
 10
1.610000
 20
2.305000
 30
0.0
  0
SPLINE
  5
111
100
AcDbEntity
  8
Layer_1
 62
7
100
AcDbSpline
 70
8
 71
3
 72
8
 73
4
 74
0
 40
0
 40
0
 40
0
 40
0
 40
1
 40
1
 40
1
 40
1
 10
1.610000
 20
2.305000
 30
0.0
 10
1.610000
 20
2.257261
 30
0.0
 10
1.591036
 20
2.211477
 30
0.0
 10
1.557279
 20
2.177721
 30
0.0
  0
SPLINE
  5
112
100
AcDbEntity
  8
Layer_1
 62
7
100
AcDbSpline
 70
8
 71
3
 72
8
 73
4
 74
0
 40
0
 40
0
 40
0
 40
0
 40
1
 40
1
 40
1
 40
1
 10
1.557279
 20
2.177721
 30
0.0
 10
1.523523
 20
2.143964
 30
0.0
 10
1.477739
 20
2.125000
 30
0.0
 10
1.430000
 20
2.125000
 30
0.0
  0
LWPOLYLINE
  5
113
100
AcDbEntity
  8
Layer_1
 62
7
100
AcDbPolyline
 90
22
 70
1
 10
0.250000
 20
0.750001
 30
0.0
 10
0.250000
 20
0.500001
 30
0.0
 10
0.000000
 20
0.500001
 30
0.0
 10
0.000000
 20
0.250001
 30
0.0
 10
0.250000
 20
0.250001
 30
0.0
 10
0.250000
 20
0.000001
 30
0.0
 10
6.000000
 20
0.000001
 30
0.0
 10
6.000000
 20
0.250001
 30
0.0
 10
5.750000
 20
0.250001
 30
0.0
 10
5.750000
 20
0.500001
 30
0.0
 10
6.000000
 20
0.500001
 30
0.0
 10
6.000000
 20
0.750001
 30
0.0
 10
4.750000
 20
0.750001
 30
0.0
 10
4.750000
 20
0.500001
 30
0.0
 10
3.750000
 20
0.500001
 30
0.0
 10
3.750000
 20
0.750001
 30
0.0
 10
3.250000
 20
0.750001
 30
0.0
 10
2.750000
 20
0.750001
 30
0.0
 10
2.250000
 20
0.750001
 30
0.0
 10
2.250000
 20
0.500001
 30
0.0
 10
1.250000
 20
0.500001
 30
0.0
 10
1.250000
 20
0.750001
 30
0.0
  0
SPLINE
  5
114
100
AcDbEntity
  8
Layer_1
 62
7
100
AcDbSpline
 70
8
 71
3
 72
8
 73
4
 74
0
 40
0
 40
0
 40
0
 40
0
 40
1
 40
1
 40
1
 40
1
 10
1.430000
 20
5.265000
 30
0.0
 10
1.382261
 20
5.265000
 30
0.0
 10
1.336477
 20
5.283964
 30
0.0
 10
1.302721
 20
5.317721
 30
0.0
  0
SPLINE
  5
115
100
AcDbEntity
  8
Layer_1
 62
7
100
AcDbSpline
 70
8
 71
3
 72
8
 73
4
 74
0
 40
0
 40
0
 40
0
 40
0
 40
1
 40
1
 40
1
 40
1
 10
1.302721
 20
5.317721
 30
0.0
 10
1.268964
 20
5.351477
 30
0.0
 10
1.250000
 20
5.397261
 30
0.0
 10
1.250000
 20
5.445000
 30
0.0
  0
SPLINE
  5
116
100
AcDbEntity
  8
Layer_1
 62
7
100
AcDbSpline
 70
8
 71
3
 72
8
 73
4
 74
0
 40
0
 40
0
 40
0
 40
0
 40
1
 40
1
 40
1
 40
1
 10
1.250000
 20
5.445000
 30
0.0
 10
1.250000
 20
5.492739
 30
0.0
 10
1.268964
 20
5.538523
 30
0.0
 10
1.302721
 20
5.572279
 30
0.0
  0
SPLINE
  5
117
100
AcDbEntity
  8
Layer_1
 62
7
100
AcDbSpline
 70
8
 71
3
 72
8
 73
4
 74
0
 40
0
 40
0
 40
0
 40
0
 40
1
 40
1
 40
1
 40
1
 10
1.302721
 20
5.572279
 30
0.0
 10
1.336477
 20
5.606036
 30
0.0
 10
1.382261
 20
5.625000
 30
0.0
 10
1.430000
 20
5.625000
 30
0.0
  0
SPLINE
  5
118
100
AcDbEntity
  8
Layer_1
 62
7
100
AcDbSpline
 70
8
 71
3
 72
8
 73
4
 74
0
 40
0
 40
0
 40
0
 40
0
 40
1
 40
1
 40
1
 40
1
 10
1.430000
 20
5.625000
 30
0.0
 10
1.477739
 20
5.625000
 30
0.0
 10
1.523523
 20
5.606036
 30
0.0
 10
1.557279
 20
5.572279
 30
0.0
  0
SPLINE
  5
119
100
AcDbEntity
  8
Layer_1
 62
7
100
AcDbSpline
 70
8
 71
3
 72
8
 73
4
 74
0
 40
0
 40
0
 40
0
 40
0
 40
1
 40
1
 40
1
 40
1
 10
1.557279
 20
5.572279
 30
0.0
 10
1.591036
 20
5.538523
 30
0.0
 10
1.610000
 20
5.492739
 30
0.0
 10
1.610000
 20
5.445000
 30
0.0
  0
SPLINE
  5
11a
100
AcDbEntity
  8
Layer_1
 62
7
100
AcDbSpline
 70
8
 71
3
 72
8
 73
4
 74
0
 40
0
 40
0
 40
0
 40
0
 40
1
 40
1
 40
1
 40
1
 10
1.610000
 20
5.445000
 30
0.0
 10
1.610000
 20
5.397261
 30
0.0
 10
1.591036
 20
5.351477
 30
0.0
 10
1.557279
 20
5.317721
 30
0.0
  0
SPLINE
  5
11b
100
AcDbEntity
  8
Layer_1
 62
7
100
AcDbSpline
 70
8
 71
3
 72
8
 73
4
 74
0
 40
0
 40
0
 40
0
 40
0
 40
1
 40
1
 40
1
 40
1
 10
1.557279
 20
5.317721
 30
0.0
 10
1.523523
 20
5.283964
 30
0.0
 10
1.477739
 20
5.265000
 30
0.0
 10
1.430000
 20
5.265000
 30
0.0
  0
LWPOLYLINE
  5
11c
100
AcDbEntity
  8
Layer_1
 62
7
100
AcDbPolyline
 90
1
 70
1
 10
1.430000
 20
2.125000
 30
0.0
  0
SPLINE
  5
11d
100
AcDbEntity
  8
Layer_1
 62
7
100
AcDbSpline
 70
8
 71
3
 72
8
 73
4
 74
0
 40
0
 40
0
 40
0
 40
0
 40
1
 40
1
 40
1
 40
1
 10
4.570000
 20
2.125000
 30
0.0
 10
4.617739
 20
2.125000
 30
0.0
 10
4.663523
 20
2.143964
 30
0.0
 10
4.697279
 20
2.177721
 30
0.0
  0
SPLINE
  5
11e
100
AcDbEntity
  8
Layer_1
 62
7
100
AcDbSpline
 70
8
 71
3
 72
8
 73
4
 74
0
 40
0
 40
0
 40
0
 40
0
 40
1
 40
1
 40
1
 40
1
 10
4.697279
 20
2.177721
 30
0.0
 10
4.731036
 20
2.211477
 30
0.0
 10
4.750000
 20
2.257261
 30
0.0
 10
4.750000
 20
2.305000
 30
0.0
  0
SPLINE
  5
11f
100
AcDbEntity
  8
Layer_1
 62
7
100
AcDbSpline
 70
8
 71
3
 72
8
 73
4
 74
0
 40
0
 40
0
 40
0
 40
0
 40
1
 40
1
 40
1
 40
1
 10
4.750000
 20
2.305000
 30
0.0
 10
4.750000
 20
2.352739
 30
0.0
 10
4.731036
 20
2.398523
 30
0.0
 10
4.697279
 20
2.432279
 30
0.0
  0
SPLINE
  5
120
100
AcDbEntity
  8
Layer_1
 62
7
100
AcDbSpline
 70
8
 71
3
 72
8
 73
4
 74
0
 40
0
 40
0
 40
0
 40
0
 40
1
 40
1
 40
1
 40
1
 10
4.697279
 20
2.432279
 30
0.0
 10
4.663523
 20
2.466036
 30
0.0
 10
4.617739
 20
2.485000
 30
0.0
 10
4.570000
 20
2.485000
 30
0.0
  0
SPLINE
  5
121
100
AcDbEntity
  8
Layer_1
 62
7
100
AcDbSpline
 70
8
 71
3
 72
8
 73
4
 74
0
 40
0
 40
0
 40
0
 40
0
 40
1
 40
1
 40
1
 40
1
 10
4.570000
 20
2.485000
 30
0.0
 10
4.522261
 20
2.485000
 30
0.0
 10
4.476477
 20
2.466036
 30
0.0
 10
4.442721
 20
2.432279
 30
0.0
  0
SPLINE
  5
122
100
AcDbEntity
  8
Layer_1
 62
7
100
AcDbSpline
 70
8
 71
3
 72
8
 73
4
 74
0
 40
0
 40
0
 40
0
 40
0
 40
1
 40
1
 40
1
 40
1
 10
4.442721
 20
2.432279
 30
0.0
 10
4.408964
 20
2.398523
 30
0.0
 10
4.390000
 20
2.352739
 30
0.0
 10
4.390000
 20
2.305000
 30
0.0
  0
SPLINE
  5
123
100
AcDbEntity
  8
Layer_1
 62
7
100
AcDbSpline
 70
8
 71
3
 72
8
 73
4
 74
0
 40
0
 40
0
 40
0
 40
0
 40
1
 40
1
 40
1
 40
1
 10
4.390000
 20
2.305000
 30
0.0
 10
4.390000
 20
2.257261
 30
0.0
 10
4.408964
 20
2.211477
 30
0.0
 10
4.442721
 20
2.177721
 30
0.0
  0
SPLINE
  5
124
100
AcDbEntity
  8
Layer_1
 62
7
100
AcDbSpline
 70
8
 71
3
 72
8
 73
4
 74
0
 40
0
 40
0
 40
0
 40
0
 40
1
 40
1
 40
1
 40
1
 10
4.442721
 20
2.177721
 30
0.0
 10
4.476477
 20
2.143964
 30
0.0
 10
4.522261
 20
2.125000
 30
0.0
 10
4.570000
 20
2.125000
 30
0.0
  0
LWPOLYLINE
  5
125
100
AcDbEntity
  8
Layer_1
 62
7
100
AcDbPolyline
 90
1
 70
1
 10
1.430000
 20
5.265000
 30
0.0
  0
SPLINE
  5
126
100
AcDbEntity
  8
Layer_1
 62
7
100
AcDbSpline
 70
8
 71
3
 72
8
 73
4
 74
0
 40
0
 40
0
 40
0
 40
0
 40
1
 40
1
 40
1
 40
1
 10
4.570000
 20
5.265000
 30
0.0
 10
4.617739
 20
5.265000
 30
0.0
 10
4.663523
 20
5.283964
 30
0.0
 10
4.697279
 20
5.317721
 30
0.0
  0
SPLINE
  5
127
100
AcDbEntity
  8
Layer_1
 62
7
100
AcDbSpline
 70
8
 71
3
 72
8
 73
4
 74
0
 40
0
 40
0
 40
0
 40
0
 40
1
 40
1
 40
1
 40
1
 10
4.697279
 20
5.317721
 30
0.0
 10
4.731036
 20
5.351477
 30
0.0
 10
4.750000
 20
5.397261
 30
0.0
 10
4.750000
 20
5.445000
 30
0.0
  0
SPLINE
  5
128
100
AcDbEntity
  8
Layer_1
 62
7
100
AcDbSpline
 70
8
 71
3
 72
8
 73
4
 74
0
 40
0
 40
0
 40
0
 40
0
 40
1
 40
1
 40
1
 40
1
 10
4.750000
 20
5.445000
 30
0.0
 10
4.750000
 20
5.492739
 30
0.0
 10
4.731036
 20
5.538523
 30
0.0
 10
4.697279
 20
5.572279
 30
0.0
  0
SPLINE
  5
129
100
AcDbEntity
  8
Layer_1
 62
7
100
AcDbSpline
 70
8
 71
3
 72
8
 73
4
 74
0
 40
0
 40
0
 40
0
 40
0
 40
1
 40
1
 40
1
 40
1
 10
4.697279
 20
5.572279
 30
0.0
 10
4.663523
 20
5.606036
 30
0.0
 10
4.617739
 20
5.625000
 30
0.0
 10
4.570000
 20
5.625000
 30
0.0
  0
SPLINE
  5
12a
100
AcDbEntity
  8
Layer_1
 62
7
100
AcDbSpline
 70
8
 71
3
 72
8
 73
4
 74
0
 40
0
 40
0
 40
0
 40
0
 40
1
 40
1
 40
1
 40
1
 10
4.570000
 20
5.625000
 30
0.0
 10
4.522261
 20
5.625000
 30
0.0
 10
4.476477
 20
5.606036
 30
0.0
 10
4.442721
 20
5.572279
 30
0.0
  0
SPLINE
  5
12b
100
AcDbEntity
  8
Layer_1
 62
7
100
AcDbSpline
 70
8
 71
3
 72
8
 73
4
 74
0
 40
0
 40
0
 40
0
 40
0
 40
1
 40
1
 40
1
 40
1
 10
4.442721
 20
5.572279
 30
0.0
 10
4.408964
 20
5.538523
 30
0.0
 10
4.390000
 20
5.492739
 30
0.0
 10
4.390000
 20
5.445000
 30
0.0
  0
SPLINE
  5
12c
100
AcDbEntity
  8
Layer_1
 62
7
100
AcDbSpline
 70
8
 71
3
 72
8
 73
4
 74
0
 40
0
 40
0
 40
0
 40
0
 40
1
 40
1
 40
1
 40
1
 10
4.390000
 20
5.445000
 30
0.0
 10
4.390000
 20
5.397261
 30
0.0
 10
4.408964
 20
5.351477
 30
0.0
 10
4.442721
 20
5.317721
 30
0.0
  0
SPLINE
  5
12d
100
AcDbEntity
  8
Layer_1
 62
7
100
AcDbSpline
 70
8
 71
3
 72
8
 73
4
 74
0
 40
0
 40
0
 40
0
 40
0
 40
1
 40
1
 40
1
 40
1
 10
4.442721
 20
5.317721
 30
0.0
 10
4.476477
 20
5.283964
 30
0.0
 10
4.522261
 20
5.265000
 30
0.0
 10
4.570000
 20
5.265000
 30
0.0
  0
LWPOLYLINE
  5
12e
100
AcDbEntity
  8
Layer_1
 62
7
100
AcDbPolyline
 90
1
 70
1
 10
4.570000
 20
2.125000
 30
0.0
  0
LWPOLYLINE
  5
12f
100
AcDbEntity
  8
Layer_1
 62
7
100
AcDbPolyline
 90
1
 70
1
 10
4.570000
 20
5.265000
 30
0.0
  0
SPLINE
  5
130
100
AcDbEntity
  8
Layer_1
 62
7
100
AcDbSpline
 70
8
 71
3
 72
8
 73
4
 74
0
 40
0
 40
0
 40
0
 40
0
 40
1
 40
1
 40
1
 40
1
 10
5.499999
 20
2.875000
 30
0.0
 10
5.361499
 20
2.875000
 30
0.0
 10
5.249999
 20
2.986500
 30
0.0
 10
5.249999
 20
3.125000
 30
0.0
  0
LWPOLYLINE
  5
131
100
AcDbEntity
  8
Layer_1
 62
7
100
AcDbPolyline
 90
18
 70
0
 10
-0.000001
 20
1.625000
 30
0.0
 10
0.249999
 20
1.625000
 30
0.0
 10
0.249999
 20
1.125000
 30
0.0
 10
1.249999
 20
1.125000
 30
0.0
 10
1.249999
 20
0.875000
 30
0.0
 10
2.249999
 20
0.875000
 30
0.0
 10
2.249999
 20
1.125000
 30
0.0
 10
3.749999
 20
1.125000
 30
0.0
 10
3.749999
 20
0.875000
 30
0.0
 10
4.749999
 20
0.875000
 30
0.0
 10
4.749999
 20
1.125000
 30
0.0
 10
5.749999
 20
1.125000
 30
0.0
 10
5.749999
 20
1.625000
 30
0.0
 10
5.999999
 20
1.625000
 30
0.0
 10
5.999999
 20
2.375000
 30
0.0
 10
5.749999
 20
2.375000
 30
0.0
 10
5.749999
 20
2.875000
 30
0.0
 10
5.499999
 20
2.875000
 30
0.0
  0
SPLINE
  5
132
100
AcDbEntity
  8
Layer_1
 62
7
100
AcDbSpline
 70
8
 71
3
 72
8
 73
4
 74
0
 40
0
 40
0
 40
0
 40
0
 40
1
 40
1
 40
1
 40
1
 10
5.249999
 20
4.625000
 30
0.0
 10
5.249999
 20
4.763500
 30
0.0
 10
5.361499
 20
4.875000
 30
0.0
 10
5.499999
 20
4.875000
 30
0.0
  0
LWPOLYLINE
  5
133
100
AcDbEntity
  8
Layer_1
 62
7
100
AcDbPolyline
 90
2
 70
0
 10
5.249999
 20
3.125000
 30
0.0
 10
5.249999
 20
4.625000
 30
0.0
  0
SPLINE
  5
134
100
AcDbEntity
  8
Layer_1
 62
7
100
AcDbSpline
 70
8
 71
3
 72
8
 73
4
 74
0
 40
0
 40
0
 40
0
 40
0
 40
1
 40
1
 40
1
 40
1
 10
0.499999
 20
4.875000
 30
0.0
 10
0.638499
 20
4.875000
 30
0.0
 10
0.749999
 20
4.763500
 30
0.0
 10
0.749999
 20
4.625000
 30
0.0
  0
LWPOLYLINE
  5
135
100
AcDbEntity
  8
Layer_1
 62
7
100
AcDbPolyline
 90
22
 70
0
 10
5.499999
 20
4.875000
 30
0.0
 10
5.749999
 20
4.875000
 30
0.0
 10
5.749999
 20
5.375000
 30
0.0
 10
5.999999
 20
5.375000
 30
0.0
 10
5.999999
 20
6.125000
 30
0.0
 10
5.749999
 20
6.125000
 30
0.0
 10
5.749999
 20
6.625000
 30
0.0
 10
4.749999
 20
6.625000
 30
0.0
 10
4.749999
 20
6.875000
 30
0.0
 10
3.749999
 20
6.875000
 30
0.0
 10
3.749999
 20
6.625000
 30
0.0
 10
2.249999
 20
6.625000
 30
0.0
 10
2.249999
 20
6.875000
 30
0.0
 10
1.249999
 20
6.875000
 30
0.0
 10
1.249999
 20
6.625000
 30
0.0
 10
0.249999
 20
6.625000
 30
0.0
 10
0.249999
 20
6.125000
 30
0.0
 10
-0.000001
 20
6.125000
 30
0.0
 10
-0.000001
 20
5.375000
 30
0.0
 10
0.249999
 20
5.375000
 30
0.0
 10
0.249999
 20
4.875000
 30
0.0
 10
0.499999
 20
4.875000
 30
0.0
  0
SPLINE
  5
136
100
AcDbEntity
  8
Layer_1
 62
7
100
AcDbSpline
 70
8
 71
3
 72
8
 73
4
 74
0
 40
0
 40
0
 40
0
 40
0
 40
1
 40
1
 40
1
 40
1
 10
0.749999
 20
3.125000
 30
0.0
 10
0.749999
 20
2.986500
 30
0.0
 10
0.638499
 20
2.875000
 30
0.0
 10
0.499999
 20
2.875000
 30
0.0
  0
LWPOLYLINE
  5
137
100
AcDbEntity
  8
Layer_1
 62
7
100
AcDbPolyline
 90
2
 70
0
 10
0.749999
 20
4.625000
 30
0.0
 10
0.749999
 20
3.125000
 30
0.0
  0
LWPOLYLINE
  5
138
100
AcDbEntity
  8
Layer_1
 62
7
100
AcDbPolyline
 90
5
 70
0
 10
0.499999
 20
2.875000
 30
0.0
 10
0.249999
 20
2.875000
 30
0.0
 10
0.249999
 20
2.375000
 30
0.0
 10
-0.000001
 20
2.375000
 30
0.0
 10
-0.000001
 20
1.625000
 30
0.0
  0
SPLINE
  5
139
100
AcDbEntity
  8
Layer_1
 62
7
100
AcDbSpline
 70
8
 71
3
 72
8
 73
4
 74
0
 40
0
 40
0
 40
0
 40
0
 40
1
 40
1
 40
1
 40
1
 10
4.000000
 20
8.625000
 30
0.0
 10
4.000000
 20
8.486500
 30
0.0
 10
3.888501
 20
8.375000
 30
0.0
 10
3.750001
 20
8.375000
 30
0.0
  0
LWPOLYLINE
  5
13a
100
AcDbEntity
  8
Layer_1
 62
7
100
AcDbPolyline
 90
17
 70
0
 10
0.250000
 20
8.625000
 30
0.0
 10
0.250000
 20
8.375000
 30
0.0
 10
0.000000
 20
8.375000
 30
0.0
 10
0.000000
 20
8.125000
 30
0.0
 10
0.250000
 20
8.125000
 30
0.0
 10
0.250000
 20
7.875000
 30
0.0
 10
5.750000
 20
7.875000
 30
0.0
 10
5.750000
 20
8.125000
 30
0.0
 10
6.000000
 20
8.125000
 30
0.0
 10
6.000000
 20
8.375000
 30
0.0
 10
5.750000
 20
8.375000
 30
0.0
 10
5.750000
 20
8.625000
 30
0.0
 10
5.250000
 20
8.625000
 30
0.0
 10
5.250000
 20
8.375000
 30
0.0
 10
4.500000
 20
8.375000
 30
0.0
 10
4.500000
 20
8.625000
 30
0.0
 10
4.000000
 20
8.625000
 30
0.0
  0
SPLINE
  5
13b
100
AcDbEntity
  8
Layer_1
 62
7
100
AcDbSpline
 70
8
 71
3
 72
8
 73
4
 74
0
 40
0
 40
0
 40
0
 40
0
 40
1
 40
1
 40
1
 40
1
 10
2.250001
 20
8.375000
 30
0.0
 10
2.111501
 20
8.375000
 30
0.0
 10
2.000000
 20
8.486500
 30
0.0
 10
2.000000
 20
8.625000
 30
0.0
  0
LWPOLYLINE
  5
13c
100
AcDbEntity
  8
Layer_1
 62
7
100
AcDbPolyline
 90
2
 70
0
 10
3.750001
 20
8.375000
 30
0.0
 10
2.250001
 20
8.375000
 30
0.0
  0
LWPOLYLINE
  5
13d
100
AcDbEntity
  8
Layer_1
 62
7
100
AcDbPolyline
 90
6
 70
0
 10
2.000000
 20
8.625000
 30
0.0
 10
1.500000
 20
8.625000
 30
0.0
 10
1.500000
 20
8.375000
 30
0.0
 10
0.750000
 20
8.375000
 30
0.0
 10
0.750000
 20
8.625000
 30
0.0
 10
0.250000
 20
8.625000
 30
0.0
  0
ENDSEC
  0
SECTION
  2
OBJECTS
  0
DICTIONARY
  5
C
330
0
100
AcDbDictionary
  3
ACAD_GROUP
350
D
  3
ACAD_MLINESTYLE
350
17
  0
DICTIONARY
  5
D
330
C
100
AcDbDictionary
  0
DICTIONARY
  5
1A
330
C
100
AcDbDictionary
  0
DICTIONARY
  5
17
330
C
100
AcDbDictionary
  3
STANDARD
350
18
  0
DICTIONARY
  5
19
330
C
100
AcDbDictionary
  0
ENDSEC
  0
EOF
